<?xml version="1.0" encoding="UTF-8"?>
<svg version="1.1" xmlns="http://www.w3.org/2000/svg" width="1200" height="1200">
<path d="M0 0 C1.22937656 -0.00382555 2.45875312 -0.00765109 3.72538352 -0.01159257 C7.1117536 -0.02008297 10.49790485 -0.01970544 13.88426828 -0.01541197 C17.54614796 -0.01293454 21.20800266 -0.02197121 24.86987305 -0.02944946 C32.03208059 -0.04216792 39.19425058 -0.04399393 46.35646752 -0.0416492 C52.17712018 -0.03986357 57.99776148 -0.04162092 63.81841278 -0.04587364 C64.64793392 -0.04646883 65.47745505 -0.04706402 66.33211319 -0.04767724 C68.01740347 -0.04888902 69.70269374 -0.05010316 71.38798401 -0.05131962 C87.17337516 -0.06218304 102.95874491 -0.06003767 118.74413726 -0.05393478 C133.18569511 -0.04876023 147.62718562 -0.06003736 162.06873015 -0.07903299 C176.90614491 -0.09839956 191.74352778 -0.10666988 206.58095527 -0.10290974 C214.90771437 -0.10099673 223.23441607 -0.10349552 231.56116486 -0.11762428 C238.64538392 -0.12952358 245.7295102 -0.1309589 252.81373051 -0.11883412 C256.4276792 -0.11293672 260.04145803 -0.11186983 263.65539551 -0.12383652 C267.57210611 -0.1366553 271.48855801 -0.12625219 275.40527344 -0.11352539 C276.54825968 -0.12089968 277.69124592 -0.12827396 278.86886811 -0.13587171 C289.33902478 -0.06406567 294.06566802 3.42923347 301.24925232 10.66687012 C302.01588646 11.42741316 302.78252061 12.1879562 303.57238609 12.97154599 C306.13818416 15.52070127 308.69314119 18.08044901 311.24822998 20.64033508 C313.08598207 22.47074766 314.92435618 24.30053589 316.76330566 26.12974548 C321.23782985 30.58323465 325.70408451 35.04492836 330.16721018 39.50983789 C333.79555323 43.13948945 337.42644523 46.76657182 341.0591526 50.39185524 C342.10621988 51.43682329 343.15328635 52.48179216 344.20035201 53.52676183 C344.98212278 54.30696731 344.98212278 54.30696731 345.77968691 55.10293452 C355.63192066 64.93627391 365.47416869 74.77956175 375.31354598 84.62576292 C384.31142379 93.62921642 393.32243241 102.6193968 402.33963539 111.60349187 C411.6030109 120.8331196 420.85705657 130.07200901 430.10126334 139.32083684 C435.28950913 144.5113261 440.48142305 149.69801567 445.68323326 154.87491417 C450.5744846 159.74293961 455.45256801 164.62383194 460.32203674 169.51364517 C462.11118723 171.30621165 463.90461566 173.09452002 465.70260048 174.87822533 C468.15648453 177.31396051 470.59444998 179.7646035 473.02903748 182.21960449 C474.10120161 183.27299185 474.10120161 183.27299185 475.19502562 184.34765977 C484.31561725 193.63297062 483.8811119 202.87610935 483.82289124 215.14254761 C483.82563315 216.87942989 483.82968636 218.61631051 483.83493489 220.35318702 C483.84551197 225.11768249 483.8373989 229.88199008 483.82618439 234.64647734 C483.81733759 239.78846587 483.82578748 244.93042993 483.83204651 250.07241821 C483.84153514 260.1442685 483.83493325 270.21604714 483.82278357 280.28789211 C483.80915541 292.02337199 483.81080228 303.75883484 483.8129169 315.49432062 C483.81610714 336.4422581 483.80443902 357.39016159 483.78485107 378.33808899 C483.76586387 398.64897193 483.75875905 418.959815 483.76434326 439.27070618 C483.770408 461.39475198 483.77020994 483.51878024 483.75885743 505.64282459 C483.75765018 508.00462941 483.75644419 510.36643424 483.75523949 512.72823906 C483.75433418 514.47121498 483.75433418 514.47121498 483.75341058 516.24940254 C483.7495381 524.42179979 483.74992253 532.59419049 483.75182533 540.76658821 C483.75395274 550.73705143 483.74868241 560.7074798 483.73421178 570.67793322 C483.72699232 575.76125642 483.72286968 580.844529 483.72745514 585.92785645 C483.73155778 590.58957743 483.72629214 595.25119433 483.71382906 599.91289961 C483.71092233 601.59124491 483.71130268 603.26960016 483.71547214 604.9479428 C483.77182094 629.91477253 479.57359167 654.66909134 461.52972412 673.28730774 C460.18427831 674.62690988 458.8169121 675.94438705 457.44866943 677.26069641 C456.72034912 677.9967511 455.99202881 678.73280579 455.24163818 679.49116516 C437.55595366 696.45498501 415.42958213 700.56975801 391.9119873 700.52812195 C389.91122779 700.5318611 387.91046973 700.53646367 385.90971398 700.54185259 C380.42551261 700.55406428 374.94137233 700.55382431 369.45716047 700.55146384 C363.5375929 700.55105524 357.6180448 700.56209867 351.69848633 700.57157898 C340.10860738 700.58817762 328.51874723 700.59371386 316.92885754 700.59480374 C307.51171439 700.59572351 298.09457783 700.59984378 288.67743683 700.60620499 C285.96490996 700.60800009 283.25238308 700.60977972 280.5398562 700.61155474 C279.52831775 700.61221789 279.52831775 700.61221789 278.49634418 700.61289443 C259.53787586 700.62519637 240.57940983 700.63309615 221.62093735 700.63220787 C220.90664445 700.63217671 220.19235156 700.63214556 219.45641342 700.63211345 C215.83619961 700.63194724 212.2159858 700.63174916 208.595772 700.63154404 C207.87679978 700.63150415 207.15782757 700.63146426 206.41706831 700.63142316 C204.96313527 700.63134228 203.50920222 700.63125869 202.05526917 700.63117238 C179.41652017 700.6299459 156.777831 700.64498046 134.13909912 700.6723175 C108.69887533 700.70302488 83.25869085 700.720251 57.81844735 700.71839106 C55.10717789 700.7182418 52.39590844 700.71814439 49.68463898 700.71808243 C48.68327604 700.71804746 48.68327604 700.71804746 47.66168355 700.7180118 C37.57850996 700.71795403 27.49538342 700.72859883 17.41222382 700.74474716 C5.95090812 700.76291755 -5.5103094 700.76734009 -16.97163323 700.75372832 C-22.82148453 700.74717901 -28.67114724 700.74715236 -34.52098083 700.76443481 C-39.87243486 700.78008285 -45.22354944 700.77738695 -50.57499477 700.75986655 C-52.514226 700.75677847 -54.45348204 700.7604965 -56.39268401 700.7715867 C-59.02292722 700.78563673 -61.65196792 700.775178 -64.28216934 700.75847435 C-65.04005198 700.76841071 -65.79793462 700.77834707 -66.57878339 700.78858453 C-72.89776368 700.70338379 -76.38022604 698.37149247 -80.80133057 694.07319641 C-83.71138255 689.39632715 -85.18611385 685.09025329 -83.95367432 679.59663391 C-82.13435838 674.60272215 -80.33550044 670.93093076 -75.55133057 668.26069641 C-70.39863079 666.49817926 -65.69353113 665.97524685 -60.29244041 666.01015663 C-59.48459238 666.00735896 -58.67674435 666.00456128 -57.84441608 666.00167882 C-55.13827623 665.99472193 -52.43236338 666.00197653 -49.72622681 666.00914001 C-47.76604432 666.00700126 -45.80586264 666.00397569 -43.84568274 666.00013959 C-38.45942386 665.99209564 -33.07323437 665.99640829 -27.68697572 666.00265837 C-21.8776562 666.00718941 -16.06834997 666.00015332 -10.2590332 665.99435425 C-0.19112041 665.98571789 9.87677481 665.98391396 19.9446907 665.98630142 C35.18726281 665.98954059 50.42980005 665.97635044 65.67236073 665.95952695 C71.79187503 665.95284639 77.91138991 665.94670738 84.03090477 665.94057274 C85.05071534 665.93954675 85.05071534 665.93954675 86.09112814 665.93850003 C102.27134114 665.92232453 118.45155658 665.9114878 134.6317749 665.90229797 C135.69357248 665.90168892 135.69357248 665.90168892 136.77682051 665.90106757 C153.28739084 665.89164242 169.79795981 665.88477447 186.30853271 665.88233948 C187.01837346 665.88223291 187.7282142 665.88212635 188.45956527 665.88201656 C192.03885806 665.8814834 195.61815085 665.88096865 199.19744365 665.88045518 C199.9048363 665.88035297 200.61222895 665.88025076 201.34105775 665.88014546 C202.76885814 665.8799399 204.19665854 665.87973734 205.62445894 665.87953779 C229.23026022 665.87615479 252.8360218 665.85922388 276.44180241 665.82743625 C291.64278504 665.80705263 306.84366561 665.79937108 322.04465966 665.81055985 C332.00532608 665.81688224 341.96591509 665.80882907 351.92656453 665.78950574 C357.67194277 665.77883048 363.41713298 665.77466106 369.16250992 665.78797722 C374.42687474 665.80005587 379.69088754 665.79363201 384.95522194 665.77278523 C386.85495929 665.76849406 388.75472664 665.77089084 390.65444286 665.7808264 C407.43295907 665.86217549 422.12339642 663.41044312 434.76116943 651.38569641 C447.56896638 637.72748236 448.59605818 621.54230101 448.60688782 603.68257141 C448.61145787 602.08761758 448.61645854 600.49266493 448.62185138 598.89771366 C448.63539141 594.52618514 448.64283883 590.15466436 448.64927804 585.78312039 C448.65730021 581.06473464 448.67099171 576.34636491 448.68399048 571.62799072 C448.70572749 563.45680749 448.72388211 555.28562261 448.73959541 547.11442566 C448.76231934 535.30028309 448.79045866 523.48615828 448.81991469 511.67203081 C448.86755968 492.50383995 448.91083224 473.33564183 448.95135498 454.16743469 C448.99072565 435.54861383 449.03215564 416.92979943 449.07635498 398.31098938 C449.08044139 396.58915212 449.08044139 396.58915212 449.08461035 394.83253026 C449.09829009 389.07382782 449.11201031 383.31512548 449.12575066 377.55642319 C449.23966685 329.79119441 449.34648694 282.02595163 449.44866943 234.26069641 C448.02957024 234.26484448 448.02957024 234.26484448 446.58180237 234.26907635 C423.55460695 234.33569542 400.52742404 234.3849834 377.50015259 234.41613293 C366.36430434 234.43159725 355.22851977 234.45267854 344.0927124 234.48701477 C334.38596586 234.51693034 324.67926546 234.53627457 314.9724741 234.5429619 C309.83350984 234.54687048 304.69467755 234.55604729 299.55575562 234.57788658 C294.71638735 234.59828574 289.87720511 234.60452325 285.03779793 234.60001945 C283.26410981 234.60084312 281.49041532 234.60678829 279.71676445 234.61831284 C277.28895706 234.63331083 274.86184559 234.62962373 272.434021 234.62145996 C271.73749829 234.63019849 271.04097559 234.63893701 270.32334614 234.64794034 C264.50202993 234.59528459 258.90863555 233.35656887 254.39007568 229.50679016 C253.93503662 228.90995422 253.47999756 228.31311829 253.01116943 227.69819641 C252.5380835 227.09878235 252.06499756 226.49936829 251.57757568 225.88179016 C249.07568226 222.28910583 249.31141717 219.11760877 249.32841492 214.88298035 C249.32713328 213.72885531 249.32713328 213.72885531 249.32582575 212.55141461 C249.32417166 209.95953083 249.32969117 207.367711 249.33514404 204.77583313 C249.33542596 202.92334495 249.3352681 201.07085665 249.33470154 199.21836853 C249.33441372 194.1773157 249.34030787 189.13628649 249.3472755 184.09523916 C249.3535117 178.83147392 249.35411304 173.56770818 249.3553009 168.30393982 C249.35841343 158.33086479 249.36662577 148.35780067 249.37665039 138.38473046 C249.38781396 127.03302729 249.3933226 115.6813236 249.39834583 104.32961631 C249.40880844 80.97330362 249.42640637 57.61700062 249.44866943 34.26069641 C216.80220831 34.2970315 184.15586215 34.35371993 151.50949298 34.43861736 C147.65075856 34.4486342 143.79202371 34.45847843 139.93328857 34.46821594 C138.78103571 34.471128 138.78103571 34.471128 137.60550501 34.47409889 C125.18562781 34.50507623 112.76576906 34.52208761 100.34586052 34.53389063 C87.59129531 34.54632435 74.83682658 34.57387569 62.0823223 34.61530948 C54.21916159 34.64038152 46.356161 34.65381831 38.49295976 34.65212598 C32.45208138 34.65209257 26.41145932 34.67314517 20.37064171 34.70186424 C17.90084088 34.71035416 15.43100592 34.71211939 12.9611969 34.7064991 C-5.65085488 34.66980049 -21.65722813 35.61822021 -35.86383057 49.13569641 C-46.93725585 60.94437931 -49.64877899 75.06063776 -49.72711182 90.79975891 C-49.7502898 92.61487493 -49.77440628 94.42997917 -49.79937744 96.24507141 C-49.83456188 99.0736052 -49.86390609 101.90169617 -49.8772583 104.73042297 C-49.89275295 107.48322618 -49.93293694 110.23478587 -49.97711182 112.98725891 C-49.9752034 113.82801971 -49.97329498 114.66878052 -49.97132874 115.53501892 C-50.10784517 122.11273509 -52.10562858 125.74511722 -56.73883057 130.51069641 C-61.41569983 133.4207484 -65.72177369 134.8954797 -71.21539307 133.66304016 C-76.20930483 131.84372422 -79.88109622 130.04486628 -82.55133057 125.26069641 C-84.37373055 119.95045746 -84.84691604 115.32762831 -84.81695557 109.79194641 C-84.81886902 108.99397644 -84.82078247 108.19600647 -84.82275391 107.37385559 C-84.82410876 105.68964827 -84.82046142 104.00543026 -84.81207275 102.32124329 C-84.801477 99.79560151 -84.81193263 97.27068966 -84.82476807 94.74507141 C-84.84674495 70.05427541 -80.43960649 45.60812255 -62.63238525 27.23408508 C-61.28693945 25.89448294 -59.91957323 24.57700577 -58.55133057 23.26069641 C-57.82301025 22.52464172 -57.09468994 21.78858704 -56.34429932 21.03022766 C-41.12843864 6.43542253 -20.70139366 -0.06898845 0 0 Z M283.44866943 42.26069641 C283.44866943 94.40069641 283.44866943 146.54069641 283.44866943 200.26069641 C335.58866943 200.26069641 387.72866943 200.26069641 441.44866943 200.26069641 C437.40566922 195.54386283 433.38543791 191.05330496 429.00132751 186.68637085 C428.38029013 186.06377347 427.75925274 185.44117609 427.11939603 184.79971212 C425.05597706 182.73233223 422.98903562 180.66851212 420.92205811 178.60469055 C419.43492275 177.11619906 417.94799998 175.62749516 416.46127319 174.13859558 C412.43716468 170.10994039 408.40991431 166.08443992 404.38194442 162.05964589 C400.16752399 157.84776052 395.9555476 153.6334322 391.74317932 149.41949463 C384.67618528 142.35068344 377.60708973 135.28397898 370.5368042 128.21846008 C362.3516569 120.03876716 354.17013538 111.85546089 345.99046344 103.67029291 C338.96971676 96.6450172 331.94703447 89.62168086 324.92271215 82.59998029 C320.72596725 78.4047977 316.52990881 74.20893451 312.33559227 70.01132393 C308.39885722 66.07171277 304.45970808 62.13453187 300.5186348 58.19926071 C299.06848619 56.75044057 297.61919936 55.30075732 296.17081261 53.85017586 C294.20319734 51.87985278 292.23256818 49.91259636 290.26109314 47.94613647 C289.68056551 47.36337812 289.10003787 46.78061977 288.50191849 46.18020207 C286.3331946 43.49196132 286.3331946 43.49196132 283.44866943 42.26069641 Z " fill="currentColor" transform="translate(400.55133056640625,249.7393035888672)"/>
<path d="M0 0 C1.99713042 1.60765231 3.93519702 3.25893123 5.875 4.9375 C6.54789063 5.50984375 7.22078125 6.0821875 7.9140625 6.671875 C23.59275662 21.13350154 31.35289688 42.14117294 32.875 62.9375 C32.99966218 67.12850408 32.99219132 71.31526321 32.97265625 75.5078125 C32.97053383 77.25117386 32.97053383 77.25117386 32.96836853 79.02975464 C32.96281342 82.70736366 32.95026941 86.38490967 32.9375 90.0625 C32.93247919 92.57031161 32.92791731 95.07812419 32.92382812 97.5859375 C32.91285872 103.70314616 32.89616589 109.82031857 32.875 115.9375 C34.10041504 115.92952393 35.32583008 115.92154785 36.58837891 115.91333008 C38.21777271 115.90687819 39.8471673 115.9006223 41.4765625 115.89453125 C42.68421265 115.8858905 42.68421265 115.8858905 43.91625977 115.8770752 C60.34334442 115.83109608 73.77232898 120.33372631 85.7734375 131.7421875 C95.95163253 142.45373773 99.17234785 155.12540974 99.18139648 169.45556641 C99.18972 170.58516785 99.19804352 171.71476929 99.20661926 172.87860107 C99.23063759 176.59879038 99.23948237 180.31880397 99.24609375 184.0390625 C99.2550676 186.63967946 99.26418958 189.24029592 99.27345276 191.84091187 C99.29078211 197.28961843 99.29767188 202.73828064 99.30053711 208.18701172 C99.30416434 214.45142883 99.33401251 220.71535363 99.37594169 226.97962058 C99.4150648 233.04086899 99.42613454 239.10188138 99.42726326 245.16324997 C99.43144759 247.72508789 99.44380926 250.28692691 99.46478081 252.8486824 C99.61659381 273.00003076 97.89073431 288.11923719 83.875 303.5625 C73.69081247 313.38542412 60.59552181 317.2637269 46.74246216 317.19819641 C45.43174895 317.20393473 45.43174895 317.20393473 44.09455669 317.20978898 C41.19074205 317.22003953 38.28712809 317.21614203 35.38330078 317.2121582 C33.29147154 317.21650907 31.1996439 317.22169347 29.1078186 317.22764587 C23.44248635 317.24100667 17.77722094 317.24161779 12.11187601 317.23908257 C7.37542019 317.23801089 2.63897777 317.24290128 -2.09747517 317.247688 C-13.2751174 317.25877307 -24.45272603 317.25922619 -35.63037109 317.25317383 C-47.14620649 317.24713405 -58.6619197 317.25944752 -70.17773426 317.2807439 C-80.07949979 317.29837939 -89.98122651 317.30435818 -99.88300717 317.30110615 C-105.79041501 317.29929628 -111.69773568 317.30190001 -117.60512924 317.31582069 C-123.16199945 317.32842608 -128.71867963 317.32642921 -134.27554703 317.31340981 C-136.30920731 317.3110504 -138.34288107 317.31375581 -140.37652588 317.32203293 C-158.55411719 317.39065478 -173.17611007 315.2805948 -186.87109375 302.25 C-195.02322639 293.88594016 -201.22380888 282.98947964 -201.26544189 271.04403687 C-201.27115204 270.06011963 -201.27686218 269.07620239 -201.28274536 268.06246948 C-201.28386322 266.98917389 -201.28498108 265.9158783 -201.28613281 264.81005859 C-201.29109772 263.67461609 -201.29606262 262.53917358 -201.30117798 261.36932373 C-201.3157972 257.60818884 -201.32260208 253.84709616 -201.328125 250.0859375 C-201.33387768 247.47002155 -201.3396354 244.85410562 -201.34539795 242.2381897 C-201.3549663 237.45039515 -201.36086456 232.66260969 -201.3638947 227.87480676 C-201.36836745 220.84757904 -201.38588053 213.82054661 -201.4148953 206.79337823 C-201.43920673 200.69157257 -201.44684348 194.58984685 -201.44857025 188.48799515 C-201.45159051 185.90053877 -201.45959777 183.3130831 -201.47275543 180.72565842 C-201.48988537 177.09739321 -201.48791814 173.46959828 -201.48144531 169.84130859 C-201.4906601 168.78015839 -201.49987488 167.71900818 -201.5093689 166.6257019 C-201.42828907 152.05479264 -195.93560618 139.99559595 -185.93359375 129.48828125 C-173.97616738 118.62847677 -159.86199643 115.720043 -144.1875 115.875 C-143.31287109 115.87951172 -142.43824219 115.88402344 -141.53710938 115.88867188 C-139.39970953 115.90035166 -137.26234537 115.91828311 -135.125 115.9375 C-135.13166183 115.31570358 -135.13832367 114.69390717 -135.14518738 114.05326843 C-135.21244052 107.48128524 -135.25716645 100.90940236 -135.28979492 94.3371582 C-135.30472383 91.8963625 -135.32507427 89.45559285 -135.35131836 87.01489258 C-135.55394687 67.66188367 -135.52733933 48.79546335 -127.125 30.9375 C-126.68285156 29.99648438 -126.24070312 29.05546875 -125.78515625 28.0859375 C-115.25012698 7.36607385 -96.95484213 -6.93405231 -75.125 -14.0625 C-49.19315161 -21.44395365 -21.41980635 -16.48422315 0 0 Z M-90.125 34.9375 C-99.57010109 47.49034403 -101.29466064 60.86737193 -101.22265625 76.09375 C-101.22164917 77.10791992 -101.22064209 78.12208984 -101.21960449 79.16699219 C-101.21440694 82.92383977 -101.20044589 86.68067113 -101.1875 90.4375 C-101.166875 98.8525 -101.14625 107.2675 -101.125 115.9375 C-68.125 115.9375 -35.125 115.9375 -1.125 115.9375 C-1.063125 107.8525 -1.00125 99.7675 -0.9375 91.4375 C-0.91018799 88.92060547 -0.88287598 86.40371094 -0.85473633 83.81054688 C-0.72340522 63.20368424 -1.79016536 45.92539662 -16.63671875 30.23046875 C-27.28368436 20.41921473 -39.40231184 16.56590825 -53.65234375 16.7265625 C-68.1632983 17.60799281 -80.35624581 24.32749985 -90.125 34.9375 Z M-164.125 156 C-166.54734752 159.55782292 -167.24991945 161.13968494 -167.27217102 165.35162354 C-167.27932632 166.279673 -167.28648163 167.20772247 -167.29385376 168.16389465 C-167.29654266 169.18520981 -167.29923157 170.20652496 -167.30200195 171.25878906 C-167.30857315 172.33208969 -167.31514435 173.40539032 -167.32191467 174.51121521 C-167.34168017 178.07518579 -167.35331763 181.63911417 -167.36328125 185.203125 C-167.36735678 186.41841637 -167.3714323 187.63370773 -167.37563133 188.88582611 C-167.39650609 195.31825085 -167.41080165 201.75065416 -167.42016602 208.18310547 C-167.43123243 214.83239486 -167.46563139 221.48134156 -167.50533772 228.1305275 C-167.53146517 233.23832833 -167.53985445 238.34604904 -167.54344749 243.45391083 C-167.54832356 245.90513111 -167.55996636 248.35634757 -167.57848549 250.80750275 C-167.60279332 254.23815 -167.60192669 257.66792608 -167.5949707 261.09863281 C-167.60778076 262.11185104 -167.62059082 263.12506927 -167.63378906 264.16899109 C-167.59106758 269.9481636 -167.05522058 273.38694048 -163.125 277.9375 C-157.84321755 282.7039866 -153.79953078 283.08543892 -146.90812683 283.07794189 C-145.63656368 283.08239858 -145.63656368 283.08239858 -144.33931237 283.0869453 C-141.48816124 283.09564277 -138.63705204 283.09714143 -135.78588867 283.09863281 C-133.74594533 283.10326023 -131.70600286 283.10828479 -129.6660614 283.11367798 C-124.11642673 283.12681102 -118.56680415 283.13324866 -113.01715636 283.13768864 C-109.55148324 283.1406178 -106.08581344 283.14472231 -102.62014198 283.14919281 C-91.78123972 283.1628699 -80.94234504 283.17253562 -70.10343474 283.1763947 C-57.58329498 283.18087662 -45.06326433 283.19842988 -32.54315776 283.2273953 C-22.87089443 283.24899697 -13.19866184 283.25909817 -3.52637464 283.26043582 C2.2529807 283.2614849 8.03223351 283.26741468 13.81156349 283.28525543 C19.2476749 283.30170996 24.68360641 283.30390431 30.11973381 283.29511642 C32.1151795 283.29434466 34.11063477 283.2987071 36.10605621 283.30857468 C38.82997797 283.321255 41.55325879 283.31543867 44.2771759 283.30499268 C45.06696974 283.31304908 45.85676358 283.32110548 46.67049056 283.32940602 C52.19467884 283.27985329 56.41988275 282.22933154 60.51953125 278.40234375 C63.50575167 274.49728628 64.99611971 272.4463798 65.02217102 267.56806946 C65.02932632 266.6498793 65.03648163 265.73168915 65.04385376 264.78567505 C65.04654266 263.77528168 65.04923157 262.76488831 65.05200195 261.72387695 C65.06185875 260.13096581 65.06185875 260.13096581 65.07191467 258.50587463 C65.09168152 254.97917618 65.10331858 251.45252039 65.11328125 247.92578125 C65.11735678 246.7227706 65.1214323 245.51975994 65.12563133 244.28029442 C65.14650772 237.91155543 65.16080197 231.54283809 65.17016602 225.17407227 C65.18122637 218.59437959 65.21561795 212.01502549 65.25533772 205.43545246 C65.28148288 200.37822337 65.28985608 195.32107514 65.29344749 190.26378441 C65.2983198 187.83851017 65.30995199 185.4132397 65.32848549 182.98803139 C65.35282851 179.59111359 65.3519201 176.195074 65.3449707 172.7980957 C65.35778076 171.79782349 65.37059082 170.79755127 65.38378906 169.76696777 C65.33795909 163.613754 64.51852833 159.95110936 60.875 154.9375 C54.84696225 150.16530345 50.23193588 149.78865889 42.74787903 149.79705811 C41.92185029 149.79408698 41.09582156 149.79111586 40.24476165 149.7880547 C37.47281589 149.77937306 34.70091335 149.7778599 31.92895508 149.77636719 C29.94299223 149.77173859 27.95703026 149.76671388 25.97106934 149.76132202 C20.57211409 149.74819899 15.17317129 149.74175311 9.77420259 149.73731136 C6.40046347 149.73438015 3.02672775 149.73027523 -0.34700966 149.72580719 C-10.90453043 149.71213179 -21.46204343 149.70246565 -32.01957244 149.6986053 C-44.20291045 149.69412594 -56.38613619 149.67658383 -68.56944007 149.6476047 C-77.98869404 149.62597868 -87.40791645 149.6159005 -96.82719499 149.61456418 C-102.45181329 149.61351671 -108.07632606 149.60762123 -113.7009182 149.58974457 C-118.99423862 149.57324832 -124.28737437 149.571116 -129.58071136 149.57988358 C-131.52007098 149.58065314 -133.45944058 149.57632183 -135.3987751 149.56642532 C-138.05372196 149.55367515 -140.70801775 149.55959921 -143.36296082 149.57000732 C-144.12387927 149.56195092 -144.88479772 149.55389452 -145.66877431 149.54559398 C-152.41880134 149.60715326 -159.56376656 150.62314628 -164.125 156 Z " fill="currentColor" transform="translate(451.125,500.0625)"/>
</svg>
