<svg width="634.18" height="76.074" viewBox="0 0 634.18 76.074" xmlns="http://www.w3.org/2000/svg"><g id="svgGroup" stroke-linecap="round" fill-rule="evenodd" font-size="9pt" stroke="#000" stroke-width="0.25mm" fill="#000" style="stroke:#000;stroke-width:0.25mm;fill:#000"><path d="M 132.08 39.795 L 132.08 57.617 A 17.285 17.285 0 0 1 131.795 60.67 A 23.113 23.113 0 0 1 131.152 63.306 A 16.999 16.999 0 0 1 128.149 68.97 A 15.856 15.856 0 0 1 124.522 72.276 A 19.604 19.604 0 0 1 122.729 73.34 Q 119.581 74.995 115.155 75.092 A 25.375 25.375 0 0 1 114.6 75.098 L 91.699 75.098 A 17.285 17.285 0 0 1 88.646 74.812 A 23.113 23.113 0 0 1 86.011 74.17 A 16.999 16.999 0 0 1 80.347 71.167 A 15.856 15.856 0 0 1 77.041 67.54 A 19.604 19.604 0 0 1 75.977 65.747 Q 74.322 62.598 74.225 58.173 A 25.375 25.375 0 0 1 74.219 57.617 A 17.294 17.294 0 0 1 74.481 54.692 A 23.362 23.362 0 0 1 75.146 51.904 Q 76.074 48.828 78.149 46.216 A 15.856 15.856 0 0 1 81.777 42.91 A 19.604 19.604 0 0 1 83.569 41.846 Q 86.718 40.191 91.143 40.094 A 25.375 25.375 0 0 1 91.699 40.088 L 114.6 40.088 L 114.6 52.197 L 91.699 52.197 A 6.766 6.766 0 0 0 90.059 52.385 A 4.567 4.567 0 0 0 87.695 53.784 A 5.543 5.543 0 0 0 86.304 57.106 A 7.291 7.291 0 0 0 86.279 57.715 A 6.086 6.086 0 0 0 86.491 59.363 A 4.442 4.442 0 0 0 87.915 61.597 A 5.797 5.797 0 0 0 91.797 62.988 L 114.6 62.988 A 6.867 6.867 0 0 0 116.24 62.804 A 4.581 4.581 0 0 0 118.604 61.426 A 5.422 5.422 0 0 0 119.985 58.233 A 7.197 7.197 0 0 0 120.02 57.52 L 120.02 39.795 A 6.509 6.509 0 0 0 119.803 38.071 A 4.755 4.755 0 0 0 118.481 35.84 Q 116.943 34.375 114.6 34.375 L 86.719 34.375 L 86.719 22.314 L 114.6 22.314 A 17.285 17.285 0 0 1 117.652 22.6 A 23.113 23.113 0 0 1 120.288 23.242 A 16.999 16.999 0 0 1 125.952 26.245 A 15.856 15.856 0 0 1 129.258 29.872 A 19.604 19.604 0 0 1 130.322 31.665 Q 131.977 34.814 132.074 39.239 A 25.375 25.375 0 0 1 132.08 39.795 Z M 63.525 5.078 L 77.686 5.078 L 44.531 72.607 Q 43.75 74.17 42.212 75.122 A 6.321 6.321 0 0 1 38.818 76.074 A 6.236 6.236 0 0 1 35.474 75.122 A 6.505 6.505 0 0 1 33.105 72.607 L 0 5.078 L 14.209 5.078 L 38.818 55.518 L 63.525 5.078 Z M 200.635 22.314 L 200.635 68.701 A 6.727 6.727 0 0 1 200.366 70.623 A 6.147 6.147 0 0 1 200.146 71.24 A 6.207 6.207 0 0 1 198.804 73.267 Q 197.949 74.121 196.802 74.609 A 6.211 6.211 0 0 1 194.418 75.097 A 7.077 7.077 0 0 1 194.336 75.098 L 165.625 75.098 A 23.261 23.261 0 0 1 162.651 74.898 A 29.064 29.064 0 0 1 160.62 74.561 A 23.623 23.623 0 0 1 155.371 72.827 A 26.992 26.992 0 0 1 150.671 70.028 A 29.956 29.956 0 0 1 150.366 69.8 Q 147.949 67.969 146.143 65.356 A 21.504 21.504 0 0 1 143.993 61.384 A 26.112 26.112 0 0 1 143.237 59.326 A 22.366 22.366 0 0 1 142.349 55.203 A 29.463 29.463 0 0 1 142.139 51.611 L 142.139 22.314 L 154.834 22.314 L 154.834 51.611 A 12.457 12.457 0 0 0 155.075 54.113 A 9.997 9.997 0 0 0 155.688 56.079 A 10.466 10.466 0 0 0 157.733 59.196 A 9.999 9.999 0 0 0 158.008 59.473 Q 159.473 60.889 161.45 61.646 Q 163.428 62.402 165.723 62.402 L 187.939 62.402 L 187.939 22.314 L 200.635 22.314 Z M 561.67 62.402 L 561.67 75.098 L 527.246 75.098 Q 524.609 75.098 521.484 74.17 Q 518.359 73.242 515.698 71.118 A 16.257 16.257 0 0 1 512.327 67.409 A 19.917 19.917 0 0 1 511.255 65.601 A 14.704 14.704 0 0 1 509.918 61.823 Q 509.556 60.131 509.488 58.187 A 26.126 26.126 0 0 1 509.473 57.275 L 509.473 40.088 A 17.666 17.666 0 0 1 509.66 37.572 A 21.348 21.348 0 0 1 509.888 36.279 A 19.51 19.51 0 0 1 511.127 32.423 A 21.501 21.501 0 0 1 511.182 32.3 Q 512.061 30.322 513.452 28.516 A 14.926 14.926 0 0 1 516.806 25.352 A 16.285 16.285 0 0 1 516.821 25.342 A 16.251 16.251 0 0 1 519.829 23.716 A 19.737 19.737 0 0 1 521.387 23.145 Q 523.975 22.314 527.246 22.314 L 561.67 22.314 L 561.67 35.01 L 527.246 35.01 A 7.823 7.823 0 0 0 525.807 35.134 Q 524.352 35.406 523.462 36.279 A 3.92 3.92 0 0 0 522.517 37.815 Q 522.168 38.816 522.168 40.186 L 522.168 57.275 Q 522.168 59.121 522.892 60.323 A 3.966 3.966 0 0 0 523.486 61.084 A 4.201 4.201 0 0 0 525.232 62.113 Q 525.894 62.321 526.695 62.379 A 8.897 8.897 0 0 0 527.344 62.402 L 561.67 62.402 Z M 401.367 57.275 L 401.367 59.717 A 15.605 15.605 0 0 1 401.112 62.462 A 20.523 20.523 0 0 1 400.562 64.746 Q 399.756 67.432 397.925 69.727 A 14.008 14.008 0 0 1 394.725 72.635 A 17.193 17.193 0 0 1 393.164 73.56 Q 390.234 75.098 385.986 75.098 L 337.793 75.098 A 6.727 6.727 0 0 1 335.871 74.829 A 6.147 6.147 0 0 1 335.254 74.609 A 6.207 6.207 0 0 1 333.228 73.267 A 6.207 6.207 0 0 1 331.885 71.24 A 6.434 6.434 0 0 1 331.404 69.04 A 7.46 7.46 0 0 1 331.396 68.701 L 331.396 11.475 A 6.409 6.409 0 0 1 331.885 8.984 Q 332.373 7.813 333.228 6.934 A 6.022 6.022 0 0 1 335.254 5.566 A 6.434 6.434 0 0 1 337.454 5.086 A 7.46 7.46 0 0 1 337.793 5.078 L 380.273 5.078 A 15.16 15.16 0 0 1 383.018 5.341 A 20.021 20.021 0 0 1 385.303 5.908 Q 387.988 6.738 390.308 8.569 A 13.973 13.973 0 0 1 393.347 11.934 A 17.045 17.045 0 0 1 394.165 13.33 Q 395.703 16.26 395.703 20.508 L 395.703 22.9 A 23.23 23.23 0 0 1 395.348 26.853 A 30.657 30.657 0 0 1 394.58 30.151 A 23.879 23.879 0 0 1 391.121 37.283 A 26.807 26.807 0 0 1 390.967 37.5 A 22.431 22.431 0 0 1 394.995 40.674 A 20.118 20.118 0 0 1 398.021 44.518 A 22.609 22.609 0 0 1 398.291 44.971 A 21.5 21.5 0 0 1 399.961 48.628 A 25.993 25.993 0 0 1 400.537 50.488 A 23.794 23.794 0 0 1 401.241 54.473 A 30.065 30.065 0 0 1 401.367 57.275 Z M 289.99 22.314 L 289.99 35.01 L 267.822 35.01 L 267.822 75.098 L 254.98 75.098 L 254.98 35.01 L 238.477 35.01 L 238.477 22.314 L 254.98 22.314 L 254.98 5.078 L 267.822 5.078 L 267.822 22.314 L 289.99 22.314 Z M 388.672 59.619 L 388.672 57.275 A 13.617 13.617 0 0 0 388.458 54.809 A 10.709 10.709 0 0 0 387.891 52.808 A 9.99 9.99 0 0 0 386.141 49.894 A 9.441 9.441 0 0 0 385.693 49.414 A 9.439 9.439 0 0 0 382.585 47.363 A 10.935 10.935 0 0 0 382.275 47.241 A 11.592 11.592 0 0 0 379.582 46.591 A 14.732 14.732 0 0 0 377.783 46.484 L 349.17 46.484 L 349.17 33.691 L 372.07 33.691 A 14.13 14.13 0 0 0 374.578 33.478 A 11.233 11.233 0 0 0 376.562 32.935 A 9.749 9.749 0 0 0 379.285 31.389 A 9.069 9.069 0 0 0 379.98 30.762 A 9.537 9.537 0 0 0 382.105 27.491 A 10.911 10.911 0 0 0 382.153 27.368 A 11.318 11.318 0 0 0 382.799 24.732 A 14.615 14.615 0 0 0 382.91 22.9 L 382.91 20.508 Q 382.91 17.773 380.273 17.773 L 344.092 17.773 L 344.092 62.402 L 385.986 62.402 A 6.032 6.032 0 0 0 386.263 62.395 Q 386.511 62.384 386.816 62.354 A 2.06 2.06 0 0 0 387.494 62.17 A 1.931 1.931 0 0 0 387.695 62.061 A 1.482 1.482 0 0 0 388.018 61.782 Q 388.214 61.56 388.379 61.23 Q 388.586 60.817 388.647 60.184 A 5.92 5.92 0 0 0 388.672 59.619 Z M 604.297 46.289 L 634.18 75.098 L 615.869 75.098 L 590.283 50.391 A 6.081 6.081 0 0 1 588.714 48.206 Q 588.272 47.136 588.272 45.878 A 7.409 7.409 0 0 1 588.281 45.508 A 6.62 6.62 0 0 1 588.989 42.944 A 5.95 5.95 0 0 1 590.674 40.918 L 613.867 22.217 L 634.18 22.217 L 604.297 46.289 Z M 499.756 40.088 L 499.756 57.275 A 22.245 22.245 0 0 1 499.548 60.382 A 17.001 17.001 0 0 1 498.926 63.159 A 18.619 18.619 0 0 1 497.751 66.038 A 15.321 15.321 0 0 1 496.729 67.749 A 14.948 14.948 0 0 1 493.611 71.075 A 14.204 14.204 0 0 1 493.555 71.118 A 18.521 18.521 0 0 1 489.771 73.389 A 19.451 19.451 0 0 1 485.767 74.683 A 20.798 20.798 0 0 1 483.438 75.029 A 16.981 16.981 0 0 1 481.934 75.098 L 459.033 75.098 Q 456.396 75.098 453.271 74.17 Q 450.146 73.242 447.485 71.118 A 16.257 16.257 0 0 1 444.114 67.409 A 19.917 19.917 0 0 1 443.042 65.601 A 14.704 14.704 0 0 1 441.705 61.823 Q 441.343 60.131 441.275 58.187 A 26.126 26.126 0 0 1 441.26 57.275 L 441.26 40.088 Q 441.26 35.669 442.719 32.47 A 13.198 13.198 0 0 1 443.042 31.812 A 18.559 18.559 0 0 1 445.396 28.312 A 15.587 15.587 0 0 1 447.485 26.294 Q 450.146 24.17 453.271 23.242 A 24.203 24.203 0 0 1 456.094 22.576 Q 457.632 22.314 459.033 22.314 L 481.934 22.314 A 22.688 22.688 0 0 1 485.659 22.605 Q 487.807 22.962 489.588 23.761 A 13.487 13.487 0 0 1 490.234 24.072 A 18.072 18.072 0 0 1 493.652 26.327 A 14.985 14.985 0 0 1 495.752 28.491 Q 497.852 31.152 498.804 34.277 A 23.335 23.335 0 0 1 499.51 37.247 A 17.329 17.329 0 0 1 499.756 40.088 Z M 235.742 62.402 L 235.742 75.098 L 230.078 75.098 A 18.386 18.386 0 0 1 226.725 74.775 A 23.817 23.817 0 0 1 224.243 74.17 A 17.191 17.191 0 0 1 218.625 71.25 A 19.498 19.498 0 0 1 218.457 71.118 A 15.994 15.994 0 0 1 214.951 67.218 A 19.431 19.431 0 0 1 214.014 65.601 Q 212.421 62.525 212.271 58.187 A 26.488 26.488 0 0 1 212.256 57.275 L 212.256 0 L 224.951 0 L 224.951 57.275 A 6.078 6.078 0 0 0 225.157 58.899 A 4.516 4.516 0 0 0 226.416 61.011 A 5.017 5.017 0 0 0 229.664 62.39 A 6.623 6.623 0 0 0 230.078 62.402 L 235.742 62.402 Z M 434.18 62.402 L 434.18 75.098 L 428.516 75.098 A 18.386 18.386 0 0 1 425.163 74.775 A 23.817 23.817 0 0 1 422.681 74.17 A 17.191 17.191 0 0 1 417.063 71.25 A 19.498 19.498 0 0 1 416.895 71.118 A 15.994 15.994 0 0 1 413.388 67.218 A 19.431 19.431 0 0 1 412.451 65.601 Q 410.858 62.525 410.709 58.187 A 26.488 26.488 0 0 1 410.693 57.275 L 410.693 0 L 423.389 0 L 423.389 57.275 A 6.078 6.078 0 0 0 423.595 58.899 A 4.516 4.516 0 0 0 424.854 61.011 A 5.017 5.017 0 0 0 428.102 62.39 A 6.623 6.623 0 0 0 428.516 62.402 L 434.18 62.402 Z M 585.059 0 L 585.059 75.098 L 572.363 75.098 L 572.363 0 L 585.059 0 Z M 487.061 57.275 L 487.061 40.186 A 8.378 8.378 0 0 0 486.944 38.74 Q 486.807 37.956 486.506 37.341 A 3.732 3.732 0 0 0 485.742 36.279 A 4.243 4.243 0 0 0 484.011 35.289 Q 483.357 35.088 482.57 35.032 A 8.905 8.905 0 0 0 481.934 35.01 L 459.131 35.01 Q 457.355 35.01 456.177 35.642 A 3.945 3.945 0 0 0 455.273 36.304 Q 454.105 37.451 453.972 39.537 A 8.671 8.671 0 0 0 453.955 40.088 L 453.955 57.275 Q 453.955 59.121 454.68 60.323 A 3.966 3.966 0 0 0 455.273 61.084 A 4.201 4.201 0 0 0 457.019 62.113 Q 457.681 62.321 458.483 62.379 A 8.897 8.897 0 0 0 459.131 62.402 L 481.934 62.402 A 8.063 8.063 0 0 0 483.388 62.28 Q 484.184 62.134 484.805 61.813 A 3.739 3.739 0 0 0 485.791 61.084 A 4.243 4.243 0 0 0 486.782 59.352 Q 486.982 58.699 487.038 57.912 A 8.905 8.905 0 0 0 487.061 57.275 Z" vector-effect="non-scaling-stroke"/></g></svg>