<svg xmlns="http://www.w3.org/2000/svg" xmlns:xlink="http://www.w3.org/1999/xlink" xmlns:lucid="lucid" width="1700" height="1567.27"><g transform="translate(1608.5000499999996 -80)" lucid:page-tab-id="0_0"><path d="M-1180 346.5a6 6 0 0 1 6-6h189a6 6 0 0 1 6 6v149a6 6 0 0 1-6 6h-189a6 6 0 0 1-6-6z" stroke="#313149" stroke-width="2" fill="#313149"/><use xlink:href="#a" transform="matrix(1,0,0,1,-1168,352.5) translate(8.299999999999983 61.49375)"/><use xlink:href="#b" transform="matrix(1,0,0,1,-1168,352.5) translate(51.19999999999999 61.49375)"/><use xlink:href="#c" transform="matrix(1,0,0,1,-1168,352.5) translate(106.14999999999999 61.49375)"/><use xlink:href="#d" transform="matrix(1,0,0,1,-1168,352.5) translate(150.75 61.49375)"/><use xlink:href="#e" transform="matrix(1,0,0,1,-1168,352.5) translate(31.549999999999997 83.09375)"/><use xlink:href="#f" transform="matrix(1,0,0,1,-1168,352.5) translate(66.55 83.09375)"/><path d="M-1179 811.27a6 6 0 0 1 6-6h189a6 6 0 0 1 6 6v149a6 6 0 0 1-6 6h-189a6 6 0 0 1-6-6z" stroke="#ff80df" stroke-width="2" fill="#313149"/><use xlink:href="#g" transform="matrix(1,0,0,1,-1167.0000499999996,817.2684384011673) translate(10.174999999999997 61.49375)"/><use xlink:href="#h" transform="matrix(1,0,0,1,-1167.0000499999996,817.2684384011673) translate(82.025 61.49375)"/><use xlink:href="#i" transform="matrix(1,0,0,1,-1167.0000499999996,817.2684384011673) translate(135.875 61.49375)"/><use xlink:href="#j" transform="matrix(1,0,0,1,-1167.0000499999996,817.2684384011673) translate(29.575000000000003 83.09375)"/><use xlink:href="#k" transform="matrix(1,0,0,1,-1167.0000499999996,817.2684384011673) translate(70.475 83.09375)"/><path d="M-778 1298.9c22.1 0 40 17.9 40 40s-17.9 40-40 40h-80c-22.1 0-40-17.9-40-40s17.9-40 40-40z" stroke="#e08fff" stroke-width="2" fill="#313149"/><use xlink:href="#l" transform="matrix(1,0,0,1,-893.0000499999996,1303.8975722621692) translate(59 38.4625)"/><path d="M-899 811.27a6 6 0 0 1 6-6h189a6 6 0 0 1 6 6v149a6 6 0 0 1-6 6h-189a6 6 0 0 1-6-6z" stroke="#ff80df" stroke-width="2" fill="#313149"/><use xlink:href="#m" transform="matrix(1,0,0,1,-887.0000499999996,817.2684384011673) translate(14.625 61.49375)"/><use xlink:href="#n" transform="matrix(1,0,0,1,-887.0000499999996,817.2684384011673) translate(71.475 61.49375)"/><use xlink:href="#o" transform="matrix(1,0,0,1,-887.0000499999996,817.2684384011673) translate(131.375 61.49375)"/><use xlink:href="#p" transform="matrix(1,0,0,1,-887.0000499999996,817.2684384011673) translate(33.574999999999996 83.09375)"/><use xlink:href="#q" transform="matrix(1,0,0,1,-887.0000499999996,817.2684384011673) translate(81.525 83.09375)"/><path d="M-600 811.27a6 6 0 0 1 6-6h189a6 6 0 0 1 6 6v149a6 6 0 0 1-6 6h-189a6 6 0 0 1-6-6z" stroke="#ff80df" stroke-width="2" fill="#313149"/><use xlink:href="#m" transform="matrix(1,0,0,1,-588,817.2684384011673) translate(21.599999999999994 48.65)"/><use xlink:href="#r" transform="matrix(1,0,0,1,-588,817.2684384011673) translate(78.44999999999999 48.65)"/><use xlink:href="#n" transform="matrix(1,0,0,1,-588,817.2684384011673) translate(19.07499999999999 70.25)"/><use xlink:href="#s" transform="matrix(1,0,0,1,-588,817.2684384011673) translate(78.975 70.25)"/><use xlink:href="#t" transform="matrix(1,0,0,1,-588,817.2684384011673) translate(114.975 70.25)"/><use xlink:href="#u" transform="matrix(1,0,0,1,-588,817.2684384011673) translate(64.07499999999999 91.85000000000001)"/><path d="M-1179 1031.27a6 6 0 0 1 6-6h189a6 6 0 0 1 6 6v149a6 6 0 0 1-6 6h-189a6 6 0 0 1-6-6z" stroke="#ff80df" stroke-width="2" fill="#313149"/><use xlink:href="#m" transform="matrix(1,0,0,1,-1167.0000499999996,1037.2684384011673) translate(32.625 61.49375)"/><use xlink:href="#v" transform="matrix(1,0,0,1,-1167.0000499999996,1037.2684384011673) translate(89.475 61.49375)"/><use xlink:href="#w" transform="matrix(1,0,0,1,-1167.0000499999996,1037.2684384011673) translate(25.574999999999996 83.09375)"/><use xlink:href="#x" transform="matrix(1,0,0,1,-1167.0000499999996,1037.2684384011673) translate(109.475 83.09375)"/><path d="M-879 1031.27a6 6 0 0 1 6-6h189a6 6 0 0 1 6 6v149a6 6 0 0 1-6 6h-189a6 6 0 0 1-6-6z" stroke="#ff80df" stroke-width="2" fill="#313149"/><use xlink:href="#y" transform="matrix(1,0,0,1,-867.0000499999996,1037.2684384011673) translate(5.074999999999989 70.05625)"/><use xlink:href="#z" transform="matrix(1,0,0,1,-867.0000499999996,1037.2684384011673) translate(52.07499999999999 70.05625)"/><use xlink:href="#A" transform="matrix(1,0,0,1,-867.0000499999996,1037.2684384011673) translate(99.02499999999999 70.05625)"/><use xlink:href="#B" transform="matrix(1,0,0,1,-867.0000499999996,1037.2684384011673) translate(119.02499999999999 70.05625)"/><path d="M-483.7 1030.02a7.5 7.5 0 0 1 9.38 0l90.63 72.5a4.8 4.8 0 0 1 0 7.5l-90.62 72.5a7.5 7.5 0 0 1-9.37 0l-90.62-72.5a4.8 4.8 0 0 1 0-7.5z" stroke="#fcce14" stroke-width="2" fill="#313149"/><use xlink:href="#C" transform="matrix(1,0,0,1,-574.0000499999996,1031.2684384011673) translate(23.579999999999995 70.65)"/><use xlink:href="#z" transform="matrix(1,0,0,1,-574.0000499999996,1031.2684384011673) translate(70.53 70.65)"/><use xlink:href="#D" transform="matrix(1,0,0,1,-574.0000499999996,1031.2684384011673) translate(117.48 70.65)"/><use xlink:href="#E" transform="matrix(1,0,0,1,-574.0000499999996,1031.2684384011673) translate(37.105000000000004 92.25)"/><use xlink:href="#F" transform="matrix(1,0,0,1,-574.0000499999996,1031.2684384011673) translate(92.00500000000001 92.25)"/><path d="M-1179 1471.27a6 6 0 0 1 6-6h189a6 6 0 0 1 6 6v149a6 6 0 0 1-6 6h-189a6 6 0 0 1-6-6z" stroke="#ff80df" stroke-width="2" fill="#313149"/><use xlink:href="#y" transform="matrix(1,0,0,1,-1167.0000499999996,1477.2684384011673) translate(4.025000000000006 61.49375)"/><use xlink:href="#G" transform="matrix(1,0,0,1,-1167.0000499999996,1477.2684384011673) translate(51.025000000000006 61.49375)"/><use xlink:href="#H" transform="matrix(1,0,0,1,-1167.0000499999996,1477.2684384011673) translate(92.025 61.49375)"/><use xlink:href="#I" transform="matrix(1,0,0,1,-1167.0000499999996,1477.2684384011673) translate(38.074999999999996 83.09375)"/><use xlink:href="#A" transform="matrix(1,0,0,1,-1167.0000499999996,1477.2684384011673) translate(81.025 83.09375)"/><use xlink:href="#J" transform="matrix(1,0,0,1,-1167.0000499999996,1477.2684384011673) translate(101.025 83.09375)"/><path d="M-1179 1251.27a6 6 0 0 1 6-6h189a6 6 0 0 1 6 6v149a6 6 0 0 1-6 6h-189a6 6 0 0 1-6-6z" stroke="#ff80df" stroke-width="2" fill="#313149"/><use xlink:href="#K" transform="matrix(1,0,0,1,-1167.0000499999996,1257.2684384011673) translate(41.099999999999994 61.49375)"/><use xlink:href="#L" transform="matrix(1,0,0,1,-1167.0000499999996,1257.2684384011673) translate(91.05 61.49375)"/><use xlink:href="#M" transform="matrix(1,0,0,1,-1167.0000499999996,1257.2684384011673) translate(4.625 83.09375)"/><use xlink:href="#N" transform="matrix(1,0,0,1,-1167.0000499999996,1257.2684384011673) translate(123.525 83.09375)"/><path d="M-859 1471.27a6 6 0 0 1 6-6h189a6 6 0 0 1 6 6v149a6 6 0 0 1-6 6h-189a6 6 0 0 1-6-6z" stroke="#ff80df" stroke-width="2" fill="#313149"/><use xlink:href="#O" transform="matrix(1,0,0,1,-847.0000499999996,1477.2684384011673) translate(37.05 48.65)"/><use xlink:href="#P" transform="matrix(1,0,0,1,-847.0000499999996,1477.2684384011673) translate(103.95 48.65)"/><use xlink:href="#Q" transform="matrix(1,0,0,1,-847.0000499999996,1477.2684384011673) translate(2.5749999999999886 70.25)"/><use xlink:href="#I" transform="matrix(1,0,0,1,-847.0000499999996,1477.2684384011673) translate(88.52499999999999 70.25)"/><use xlink:href="#t" transform="matrix(1,0,0,1,-847.0000499999996,1477.2684384011673) translate(131.475 70.25)"/><use xlink:href="#R" transform="matrix(1,0,0,1,-847.0000499999996,1477.2684384011673) translate(2.0749999999999886 91.85000000000001)"/><use xlink:href="#n" transform="matrix(1,0,0,1,-847.0000499999996,1477.2684384011673) translate(84.02499999999999 91.85000000000001)"/><use xlink:href="#S" transform="matrix(1,0,0,1,-847.0000499999996,1477.2684384011673) translate(143.925 91.85000000000001)"/><path d="M-440 1505.27c22.1 0 40 17.9 40 40s-17.9 40-40 40h-80c-22.1 0-40-17.9-40-40s17.9-40 40-40z" stroke="#e08fff" stroke-width="2" fill="#313149"/><use xlink:href="#l" transform="matrix(1,0,0,1,-555,1510.2684384011673) translate(59 38.4625)"/><path d="M-977.5 421h123.56" stroke="#d6d6e6" fill="none"/><path d="M-977.5 421.48h-.5v-.96h.5z" stroke="#d6d6e6" stroke-width=".05" fill="#d6d6e6"/><path d="M-839.18 421l-14.26 4.63v-9.26z" stroke="#d6d6e6" fill="#d6d6e6"/><path d="M-976.5 885.77h60.12" stroke="#d6d6e6" fill="none"/><path d="M-976.5 886.24h-.5v-.95h.5z" stroke="#d6d6e6" stroke-width=".05" fill="#d6d6e6"/><path d="M-901.62 885.77l-14.26 4.63v-9.27z" stroke="#d6d6e6" fill="#d6d6e6"/><path d="M-696.5 885.77h79.12" stroke="#d6d6e6" fill="none"/><path d="M-696.5 886.24h-.5v-.95h.5z" stroke="#d6d6e6" stroke-width=".05" fill="#d6d6e6"/><path d="M-602.62 885.77l-14.26 4.63v-9.27z" stroke="#d6d6e6" fill="#d6d6e6"/><path d="M-397.5 885.77h33.5a6 6 0 0 1 6 6v98a6 6 0 0 1-6 6h-850a6 6 0 0 0-6 6v98a6 6 0 0 0 6 6h17.62" stroke="#d6d6e6" fill="none"/><path d="M-397.5 886.24h-.5v-.95h.5z" stroke="#d6d6e6" stroke-width=".05" fill="#d6d6e6"/><path d="M-1181.62 1105.77l-14.26 4.63v-9.27z" stroke="#d6d6e6" fill="#d6d6e6"/><path d="M-976.5 1105.77h80.12" stroke="#d6d6e6" fill="none"/><path d="M-976.5 1106.24h-.5v-.95h.5z" stroke="#d6d6e6" stroke-width=".05" fill="#d6d6e6"/><path d="M-881.62 1105.77l-14.26 4.63v-9.27z" stroke="#d6d6e6" fill="#d6d6e6"/><path d="M-676.5 1105.77h49.2a.25.25 0 0 1 .24.25.25.25 0 0 0 .25.25h33.3" stroke="#d6d6e6" fill="none"/><path d="M-676.5 1106.24h-.5v-.95h.5z" stroke="#d6d6e6" stroke-width=".05" fill="#d6d6e6"/><path d="M-578.74 1106.27l-14.26 4.63v-9.27z" stroke="#d6d6e6" fill="#d6d6e6"/><path d="M-363 1105.87l1 .24.94.4.87.53.78.66.66.76.53.87.4.94.23 1 .08.98v317.04l-.08.98-.24 1-.4.93-.52.88-.66.77-.77.66-.86.54-.94.4-1 .22-.98.08h-850l-.88.07-.85.22-.8.33-.75.45-.66.56-.57.66-.45.74-.33.8-.2.84-.08.9v98.45l.07.88.2.84.34.8.45.75.56.65.65.57.74.45.8.32.84.2.88.07h17.6v.94h-17.64l-1-.08-.98-.23-.94-.4-.87-.52-.78-.65-.66-.77-.53-.87-.4-.93-.23-1-.07-.98v-98.55l.07-1 .24-.98.4-.94.52-.87.66-.77.77-.67.86-.53.94-.4 1-.23.98-.08h850l.88-.08.85-.2.8-.33.75-.46.66-.57.57-.65.45-.74.33-.8.2-.85.07-.88V1112.3l-.06-.9-.2-.84-.34-.8-.45-.74-.56-.66-.65-.56-.74-.45-.8-.33-.84-.2-.88-.08h-16.36v-.95h16.4z" stroke="#008a0e" stroke-width=".05" fill="#008a0e"/><path d="M-380.37 1106.74h-.55l.04-.47-.04-.48h.55z" fill="#008a0e"/><path stroke="#008a0e" stroke-width=".05" fill="#008a0e"/><path d="M-1181.62 1545.77l-14.26 4.63v-9.27z" fill="#008a0e"/><path d="M-1180.08 1545.77l-16.28 5.3v-10.6zm-15.33 3.98l12.25-3.98-12.26-3.98z" stroke="#008a0e" stroke-width=".05" fill="#008a0e"/><use xlink:href="#T" transform="matrix(1,0,0,1,-683.5827201328274,1439.2684384011673) translate(0 14.4)"/><path d="M-1219.53 1319.75l.07.88.2.84.34.8.45.75.56.65.65.57.74.45.8.32.84.2.88.07h5.85v.94h-5.9l-.98-.08-1-.23-.94-.4-.87-.52-.78-.65-.66-.77-.53-.87-.4-.93-.23-1-.07-.98v-4.72h.94zm23.15 6.5h-5.88v-.96h5.88zm-23.14-15.87h-.95V1301h.94zm0-14.08h-.95v-9.38h.94zm0-14.08h-.95v-9.38h.94zm0-14.07h-.95v-9.4h.94zm0-14.08h-.95v-9.4h.94zm0-14.08h-.95v-9.4h.94zm10.48-24.3h-4.94l-.88.06-.85.2-.8.34-.75.45-.66.56-.57.67-.45.74-.33.8-.2.85-.08.9v4.66h-.94v-4.7l.07-1 .24-.98.4-.94.52-.87.66-.76.77-.66.86-.53.94-.4 1-.23.98-.08h4.98zm730.5-6.46l-.06 1-.24.98-.4.94-.52.86-.66.78-.77.66-.86.53-.94.38-1 .23-.98.1h-4.98v-.96h4.94l.88-.07.85-.2.8-.33.75-.45.66-.58.57-.66.45-.74.33-.8.2-.84.07-.88v-3.9h.96zm-16.38 6.45h-9.92v-.96h9.92zm-14.88 0h-9.9v-.96h9.9zm-14.87 0h-9.92v-.96h9.93zm-14.88 0h-9.92v-.96h9.92zm-14.88 0h-9.92v-.96h9.92zm-14.88 0h-9.93v-.96h9.92zm-14.88 0h-9.92v-.96h9.92zm-14.88 0h-9.92v-.96h9.92zm-14.88 0h-9.92v-.96h9.92zm-14.88 0h-9.9v-.96h9.9zm-14.87 0h-9.9v-.96h9.9zm-14.87 0h-9.92v-.96h9.93zm-14.88 0h-9.92v-.96h9.92zm-14.88 0h-9.9v-.96h9.9zm-14.87 0h-9.92v-.96h9.92zm-14.88 0H-728v-.96h9.92zm-14.88 0h-9.92v-.96h9.92zm-14.88 0h-9.9v-.96h9.9zm-14.87 0h-9.93v-.96h9.92zm-14.9 0h-9.9v-.96h9.9zm-14.87 0h-9.92v-.96h9.93zm-14.88 0h-9.9v-.96h9.9zm-14.88 0h-9.9v-.96h9.9zm-14.87 0h-9.92v-.96h9.92zm-14.88 0h-9.92v-.96h9.92zm-14.88 0h-9.92v-.96h9.92zm-14.88 0h-9.9v-.96h9.9zm-39.5 0h-.17v-.96h.17zm-5.13 0h-9.92v-.96h9.93zm-14.88 0h-9.9v-.96h9.9zm-14.87 0h-9.92v-.96h9.92zm-14.88 0h-9.92v-.96h9.92zm-14.88 0h-9.92v-.96h9.92zm-14.88 0h-9.9v-.96h9.9zm-14.87 0h-9.92v-.96h9.92zm-14.88 0h-9.93v-.96h9.92zm-14.9 0h-9.9v-.96h9.9zm-14.87 0h-9.9v-.96h9.9zm-14.87 0h-9.92v-.96h9.92zm-14.88 0h-9.92v-.96h9.92zm-14.88 0h-9.92v-.96h9.92zm-14.88 0h-9.9v-.96h9.9zm-14.87 0h-9.92v-.96h9.92zm-14.88 0h-9.92v-.96h9.92zm-14.88 0h-9.93v-.96h9.92zm-14.9 0h-9.9v-.96h9.9zm-14.86 0h-9.92v-.96h9.92zm297.55 0h-1.67v-.96h1.66zm418.08-14.33h-.96v-7.85h.96zm0-11.78h-.96v-3.93h.96z" stroke="#e81313" stroke-width=".05" fill="#e81313"/><path d="M-479 1185.17l.48-.04v.55h-.96v-.55z" fill="#e81313"/><path stroke="#e81313" stroke-width=".05" fill="#e81313"/><path d="M-1181.62 1325.77l-14.26 4.63v-9.27z" fill="#e81313"/><path d="M-1180.08 1325.77l-16.28 5.3v-10.6zm-15.33 3.98l12.25-3.98-12.26-3.98z" stroke="#e81313" stroke-width=".05" fill="#e81313"/><g><use xlink:href="#U" transform="matrix(1,0,0,1,-921.225025,1204.4172245322518) translate(0 14.4)"/></g><path d="M-976.5 1325.77h63.34" stroke="#d6d6e6" fill="none"/><path d="M-976.5 1326.24h-.5v-.95h.5z" stroke="#d6d6e6" stroke-width=".05" fill="#d6d6e6"/><path d="M-898.4 1325.77l-14.26 4.63v-9.27z" stroke="#d6d6e6" fill="#d6d6e6"/><path d="M-976.5 1545.77h100.12" stroke="#d6d6e6" fill="none"/><path d="M-976.5 1546.24h-.5v-.95h.5z" stroke="#d6d6e6" stroke-width=".05" fill="#d6d6e6"/><path d="M-861.62 1545.77l-14.26 4.63v-9.27z" stroke="#d6d6e6" fill="#d6d6e6"/><path d="M-656.5 1545.77h47.25a.25.25 0 0 0 .25-.25.25.25 0 0 1 .25-.25h31.37" stroke="#d6d6e6" fill="none"/><path d="M-656.5 1546.24h-.5v-.95h.5z" stroke="#d6d6e6" stroke-width=".05" fill="#d6d6e6"/><path d="M-562.62 1545.27l-14.26 4.63v-9.27z" stroke="#d6d6e6" fill="#d6d6e6"/><path d="M-1588.5 106a6 6 0 0 1 6-6h1648a6 6 0 0 1 6 6v308a6 6 0 0 1-6 6h-1648a6 6 0 0 1-6-6z" fill="none"/><g><use xlink:href="#V" transform="matrix(1,0,0,1,-1588.5000499999996,100) translate(390.1851851851852 173.33333333333334)"/><use xlink:href="#W" transform="matrix(1,0,0,1,-1588.5000499999996,100) translate(567.5925925925926 173.33333333333334)"/><use xlink:href="#X" transform="matrix(1,0,0,1,-1588.5000499999996,100) translate(907.4074074074074 173.33333333333334)"/></g><path d="M-399 614.73c22.1 0 40 17.9 40 40s-17.9 40-40 40h-80c-22.1 0-40-17.9-40-40s17.9-40 40-40z" stroke="#e08fff" stroke-width="2" fill="#313149"/><g><use xlink:href="#l" transform="matrix(1,0,0,1,-514,619.7315615988327) translate(59 38.4625)"/></g><path d="M-836.56 346.5a6 6 0 0 1 6-6h189a6 6 0 0 1 6 6v149a6 6 0 0 1-6 6h-189a6 6 0 0 1-6-6z" stroke="#ff80df" stroke-width="2" fill="#313149"/><g><use xlink:href="#m" transform="matrix(1,0,0,1,-824.560219694382,352.5) translate(32.625 61.49375)"/><use xlink:href="#v" transform="matrix(1,0,0,1,-824.560219694382,352.5) translate(89.475 61.49375)"/><use xlink:href="#w" transform="matrix(1,0,0,1,-824.560219694382,352.5) translate(25.574999999999996 83.09375)"/><use xlink:href="#x" transform="matrix(1,0,0,1,-824.560219694382,352.5) translate(109.475 83.09375)"/></g><path d="M-536.56 346.5a6 6 0 0 1 6-6h189a6 6 0 0 1 6 6v149a6 6 0 0 1-6 6h-189a6 6 0 0 1-6-6z" stroke="#ff80df" stroke-width="2" fill="#313149"/><g><use xlink:href="#y" transform="matrix(1,0,0,1,-524.560219694382,352.5) translate(5.074999999999989 70.05625)"/><use xlink:href="#z" transform="matrix(1,0,0,1,-524.560219694382,352.5) translate(52.07499999999999 70.05625)"/><use xlink:href="#A" transform="matrix(1,0,0,1,-524.560219694382,352.5) translate(99.02499999999999 70.05625)"/><use xlink:href="#B" transform="matrix(1,0,0,1,-524.560219694382,352.5) translate(119.02499999999999 70.05625)"/></g><path d="M-1104.68 578.48a7.5 7.5 0 0 1 9.37 0l90.62 72.5a4.8 4.8 0 0 1 0 7.5l-90.64 72.5a7.5 7.5 0 0 1-9.37 0l-90.62-72.5a4.8 4.8 0 0 1 0-7.5z" stroke="#fcce14" stroke-width="2" fill="#313149"/><g><use xlink:href="#C" transform="matrix(1,0,0,1,-1195,579.7315615988327) translate(23.579999999999995 70.65)"/><use xlink:href="#z" transform="matrix(1,0,0,1,-1195,579.7315615988327) translate(70.53 70.65)"/><use xlink:href="#D" transform="matrix(1,0,0,1,-1195,579.7315615988327) translate(117.48 70.65)"/><use xlink:href="#E" transform="matrix(1,0,0,1,-1195,579.7315615988327) translate(37.105000000000004 92.25)"/><use xlink:href="#F" transform="matrix(1,0,0,1,-1195,579.7315615988327) translate(92.00500000000001 92.25)"/></g><path d="M-800 567.1a6 6 0 0 1 6-6h189a6 6 0 0 1 6 6v149a6 6 0 0 1-6 6h-189a6 6 0 0 1-6-6z" stroke="#ff80df" stroke-width="2" fill="#313149"/><g><use xlink:href="#K" transform="matrix(1,0,0,1,-788,573.1024277378308) translate(41.099999999999994 61.49375)"/><use xlink:href="#L" transform="matrix(1,0,0,1,-788,573.1024277378308) translate(91.05 61.49375)"/><use xlink:href="#M" transform="matrix(1,0,0,1,-788,573.1024277378308) translate(4.625 83.09375)"/><use xlink:href="#N" transform="matrix(1,0,0,1,-788,573.1024277378308) translate(123.525 83.09375)"/></g><path d="M-597.5 641.6h63.34" stroke="#d6d6e6" fill="none"/><path d="M-597.5 642.08h-.5v-.95h.5z" stroke="#d6d6e6" stroke-width=".05" fill="#d6d6e6"/><path d="M-519.4 641.6l-14.26 4.64v-9.27z" stroke="#d6d6e6" fill="#d6d6e6"/><path d="M-634.06 421h80.12" stroke="#d6d6e6" fill="none"/><path d="M-634.05 421.48h-.5v-.96h.5z" stroke="#d6d6e6" stroke-width=".05" fill="#d6d6e6"/><path d="M-539.18 421l-14.26 4.63v-9.26z" stroke="#d6d6e6" fill="#d6d6e6"/><path d="M-996.27 655.2h-5.1v-.94h5.1zm15.33 0h-10.22v-.94h10.22zm15.34 0h-10.23v-.94h10.23zm15.33 0h-10.22v-.94h10.23zm15.33 0h-10.22v-.94h10.22zm15.34 0h-10.23v-.94h10.23zm6.7 0h-1.6v-.94h1.6zm39.3 0h-10.23v-.94h10.23zm15.33 0h-10.22v-.94h10.23zm15.33 0h-10.22v-.94h10.22zm15.33 0h-10.23v-.94h10.22zm10.22 0h-5.12v-.94h5.12zm-71.56 0h-1.02v-.94h1.02z" stroke="#e81313" stroke-width=".05" fill="#e81313"/><path d="M-1001.37 655.2h-.55l.04-.47-.04-.47h.55z" fill="#e81313"/><path stroke="#e81313" stroke-width=".05" fill="#e81313"/><path d="M-802.62 654.73l-14.26 4.64v-9.27z" fill="#e81313"/><path d="M-801.08 654.73l-16.28 5.3v-10.6zm-15.33 3.98l12.25-3.97-12.26-3.98z" stroke="#e81313" stroke-width=".05" fill="#e81313"/><g><use xlink:href="#U" transform="matrix(1,0,0,1,-912.9148508998677,643.9315615988328) translate(0 14.4)"/></g><path d="M-436.06 503v30.17a6 6 0 0 1-6 6H-1094a6 6 0 0 0-6 6v14.28" stroke="#d6d6e6" fill="none"/><path d="M-435.58 503h-.96v-.5h.96z" stroke="#d6d6e6" stroke-width=".05" fill="#d6d6e6"/><path d="M-1100 574.22l-4.63-14.27h9.27z" stroke="#d6d6e6" fill="#d6d6e6"/><path d="M-1001.38 654.73h33.5a6 6 0 0 1 6 6V763.5a6 6 0 0 1-6 6h-104.62a6 6 0 0 0-6 6v12.38" stroke="#008a0e" fill="none"/><path d="M-1001.37 655.2h-.55l.04-.47-.04-.47h.55z" stroke="#008a0e" stroke-width=".05" fill="#008a0e"/><path d="M-1078.5 802.65l-4.63-14.26h9.27z" stroke="#008a0e" fill="#008a0e"/><g><use xlink:href="#T" transform="matrix(1,0,0,1,-953.8797606112346,749.6865078453875) translate(0 14.4)"/></g><defs><path fill="#d6d6e6" d="M232-93c-1 65-40 97-104 97C67 4 28-28 28-90v-158h33c8 89-33 224 67 224 102 0 64-133 71-224h33v155" id="Y"/><path fill="#d6d6e6" d="M135-143c-3-34-86-38-87 0 15 53 115 12 119 90S17 21 10-45l28-5c4 36 97 45 98 0-10-56-113-15-118-90-4-57 82-63 122-42 12 7 21 19 24 35" id="Z"/><path fill="#d6d6e6" d="M100-194c63 0 86 42 84 106H49c0 40 14 67 53 68 26 1 43-12 49-29l28 8c-11 28-37 45-77 45C44 4 14-33 15-96c1-61 26-98 85-98zm52 81c6-60-76-77-97-28-3 7-6 17-6 28h103" id="aa"/><path fill="#d6d6e6" d="M114-163C36-179 61-72 57 0H25l-1-190h30c1 12-1 29 2 39 6-27 23-49 58-41v29" id="ab"/><g id="a"><use transform="matrix(0.05,0,0,0.05,0,0)" xlink:href="#Y"/><use transform="matrix(0.05,0,0,0.05,12.950000000000001,0)" xlink:href="#Z"/><use transform="matrix(0.05,0,0,0.05,21.950000000000003,0)" xlink:href="#aa"/><use transform="matrix(0.05,0,0,0.05,31.950000000000003,0)" xlink:href="#ab"/></g><path fill="#d6d6e6" d="M117-194c89-4 53 116 60 194h-32v-121c0-31-8-49-39-48C34-167 62-67 57 0H25l-1-190h30c1 10-1 24 2 32 11-22 29-35 61-36" id="ac"/><path fill="#d6d6e6" d="M59-47c-2 24 18 29 38 22v24C64 9 27 4 27-40v-127H5v-23h24l9-43h21v43h35v23H59v120" id="ad"/><g id="b"><use transform="matrix(0.05,0,0,0.05,0,0)" xlink:href="#aa"/><use transform="matrix(0.05,0,0,0.05,10,0)" xlink:href="#ac"/><use transform="matrix(0.05,0,0,0.05,20,0)" xlink:href="#ad"/><use transform="matrix(0.05,0,0,0.05,25,0)" xlink:href="#aa"/><use transform="matrix(0.05,0,0,0.05,35,0)" xlink:href="#ab"/><use transform="matrix(0.05,0,0,0.05,40.95,0)" xlink:href="#Z"/></g><path fill="#d6d6e6" d="M137 0h-34L2-248h35l83 218 83-218h36" id="ae"/><path fill="#d6d6e6" d="M141-36C126-15 110 5 73 4 37 3 15-17 15-53c-1-64 63-63 125-63 3-35-9-54-41-54-24 1-41 7-42 31l-33-3c5-37 33-52 76-52 45 0 72 20 72 64v82c-1 20 7 32 28 27v20c-31 9-61-2-59-35zM48-53c0 20 12 33 32 33 41-3 63-29 60-74-43 2-92-5-92 41" id="af"/><path fill="#d6d6e6" d="M84 4C-5 8 30-112 23-190h32v120c0 31 7 50 39 49 72-2 45-101 50-169h31l1 190h-30c-1-10 1-25-2-33-11 22-28 36-60 37" id="ag"/><path fill="#d6d6e6" d="M24 0v-261h32V0H24" id="ah"/><g id="c"><use transform="matrix(0.05,0,0,0.05,0,0)" xlink:href="#ae"/><use transform="matrix(0.05,0,0,0.05,10.65,0)" xlink:href="#af"/><use transform="matrix(0.05,0,0,0.05,20.65,0)" xlink:href="#ag"/><use transform="matrix(0.05,0,0,0.05,30.649999999999995,0)" xlink:href="#ah"/><use transform="matrix(0.05,0,0,0.05,34.6,0)" xlink:href="#ad"/></g><path fill="#d6d6e6" d="M33 0v-248h34V0H33" id="ai"/><path fill="#d6d6e6" d="M30-248c118-7 216 8 213 122C240-48 200 0 122 0H30v-248zM63-27c89 8 146-16 146-99s-60-101-146-95v194" id="aj"/><g id="d"><use transform="matrix(0.05,0,0,0.05,0,0)" xlink:href="#ai"/><use transform="matrix(0.05,0,0,0.05,5,0)" xlink:href="#aj"/></g><path fill="#d6d6e6" d="M85-194c31 0 48 13 60 33l-1-100h32l1 261h-30c-2-10 0-23-3-31C134-8 116 4 85 4 32 4 16-35 15-94c0-66 23-100 70-100zm9 24c-40 0-46 34-46 75 0 40 6 74 45 74 42 0 51-32 51-76 0-42-9-74-50-73" id="ak"/><g id="e"><use transform="matrix(0.05,0,0,0.05,0,0)" xlink:href="#af"/><use transform="matrix(0.05,0,0,0.05,10,0)" xlink:href="#ac"/><use transform="matrix(0.05,0,0,0.05,20,0)" xlink:href="#ak"/></g><path fill="#d6d6e6" d="M30-248c87 1 191-15 191 75 0 78-77 80-158 76V0H30v-248zm33 125c57 0 124 11 124-50 0-59-68-47-124-48v98" id="al"/><path fill="#d6d6e6" d="M206 0h-36l-40-164L89 0H53L-1-190h32L70-26l43-164h34l41 164 42-164h31" id="am"/><path fill="#d6d6e6" d="M100-194c62-1 85 37 85 99 1 63-27 99-86 99S16-35 15-95c0-66 28-99 85-99zM99-20c44 1 53-31 53-75 0-43-8-75-51-75s-53 32-53 75 10 74 51 75" id="an"/><g id="f"><use transform="matrix(0.05,0,0,0.05,0,0)" xlink:href="#al"/><use transform="matrix(0.05,0,0,0.05,12,0)" xlink:href="#af"/><use transform="matrix(0.05,0,0,0.05,22,0)" xlink:href="#Z"/><use transform="matrix(0.05,0,0,0.05,31,0)" xlink:href="#Z"/><use transform="matrix(0.05,0,0,0.05,40,0)" xlink:href="#am"/><use transform="matrix(0.05,0,0,0.05,52.95,0)" xlink:href="#an"/><use transform="matrix(0.05,0,0,0.05,62.95,0)" xlink:href="#ab"/><use transform="matrix(0.05,0,0,0.05,68.9,0)" xlink:href="#ak"/></g><path fill="#d6d6e6" d="M233-177c-1 41-23 64-60 70L243 0h-38l-65-103H63V0H30v-248c88 3 205-21 203 71zM63-129c60-2 137 13 137-47 0-61-80-42-137-45v92" id="ao"/><path fill="#d6d6e6" d="M24-231v-30h32v30H24zM24 0v-190h32V0H24" id="ap"/><path fill="#d6d6e6" d="M108 0H70L1-190h34L89-25l56-165h34" id="aq"/><g id="g"><use transform="matrix(0.05,0,0,0.05,0,0)" xlink:href="#ao"/><use transform="matrix(0.05,0,0,0.05,12.950000000000001,0)" xlink:href="#aa"/><use transform="matrix(0.05,0,0,0.05,22.950000000000003,0)" xlink:href="#ad"/><use transform="matrix(0.05,0,0,0.05,27.950000000000003,0)" xlink:href="#ab"/><use transform="matrix(0.05,0,0,0.05,33.900000000000006,0)" xlink:href="#ap"/><use transform="matrix(0.05,0,0,0.05,37.85000000000001,0)" xlink:href="#aa"/><use transform="matrix(0.05,0,0,0.05,47.85000000000001,0)" xlink:href="#aq"/><use transform="matrix(0.05,0,0,0.05,56.85,0)" xlink:href="#aa"/></g><path fill="#d6d6e6" d="M197 0v-115H63V0H30v-248h33v105h134v-105h34V0h-34" id="ar"/><path fill="#d6d6e6" d="M194 0L95-120 63-95V0H30v-248h33v124l119-124h40L117-140 236 0h-42" id="as"/><path fill="#d6d6e6" d="M63-220v92h138v28H63V0H30v-248h175v28H63" id="at"/><g id="h"><use transform="matrix(0.05,0,0,0.05,0,0)" xlink:href="#ar"/><use transform="matrix(0.05,0,0,0.05,12.950000000000001,0)" xlink:href="#aj"/><use transform="matrix(0.05,0,0,0.05,25.900000000000002,0)" xlink:href="#as"/><use transform="matrix(0.05,0,0,0.05,37.900000000000006,0)" xlink:href="#at"/></g><path fill="#d6d6e6" d="M185-189c-5-48-123-54-124 2 14 75 158 14 163 119 3 78-121 87-175 55-17-10-28-26-33-46l33-7c5 56 141 63 141-1 0-78-155-14-162-118-5-82 145-84 179-34 5 7 8 16 11 25" id="au"/><g id="i"><use transform="matrix(0.05,0,0,0.05,0,0)" xlink:href="#au"/><use transform="matrix(0.05,0,0,0.05,12,0)" xlink:href="#af"/><use transform="matrix(0.05,0,0,0.05,22,0)" xlink:href="#ah"/><use transform="matrix(0.05,0,0,0.05,25.950000000000003,0)" xlink:href="#ad"/></g><path fill="#d6d6e6" d="M101-234c-31-9-42 10-38 44h38v23H63V0H32v-167H5v-23h27c-7-52 17-82 69-68v24" id="av"/><path fill="#d6d6e6" d="M210-169c-67 3-38 105-44 169h-31v-121c0-29-5-50-35-48C34-165 62-65 56 0H25l-1-190h30c1 10-1 24 2 32 10-44 99-50 107 0 11-21 27-35 58-36 85-2 47 119 55 194h-31v-121c0-29-5-49-35-48" id="aw"/><g id="j"><use transform="matrix(0.05,0,0,0.05,0,0)" xlink:href="#av"/><use transform="matrix(0.05,0,0,0.05,5,0)" xlink:href="#ab"/><use transform="matrix(0.05,0,0,0.05,10.95,0)" xlink:href="#an"/><use transform="matrix(0.05,0,0,0.05,20.95,0)" xlink:href="#aw"/></g><path fill="#d6d6e6" d="M115-194c53 0 69 39 70 98 0 66-23 100-70 100C84 3 66-7 56-30L54 0H23l1-261h32v101c10-23 28-34 59-34zm-8 174c40 0 45-34 45-75 0-40-5-75-45-74-42 0-51 32-51 76 0 43 10 73 51 73" id="ax"/><g id="k"><use transform="matrix(0.05,0,0,0.05,0,0)" xlink:href="#aj"/><use transform="matrix(0.05,0,0,0.05,12.950000000000001,0)" xlink:href="#af"/><use transform="matrix(0.05,0,0,0.05,22.950000000000003,0)" xlink:href="#ad"/><use transform="matrix(0.05,0,0,0.05,27.950000000000003,0)" xlink:href="#af"/><use transform="matrix(0.05,0,0,0.05,37.95,0)" xlink:href="#ax"/><use transform="matrix(0.05,0,0,0.05,47.95,0)" xlink:href="#af"/><use transform="matrix(0.05,0,0,0.05,57.95,0)" xlink:href="#Z"/><use transform="matrix(0.05,0,0,0.05,66.95,0)" xlink:href="#aa"/></g><path fill="#d6d6e6" d="M30 0v-248h187v28H63v79h144v27H63v87h162V0H30" id="ay"/><g id="l"><use transform="matrix(0.05,0,0,0.05,0,0)" xlink:href="#ay"/><use transform="matrix(0.05,0,0,0.05,12,0)" xlink:href="#ac"/><use transform="matrix(0.05,0,0,0.05,22,0)" xlink:href="#ak"/></g><g id="m"><use transform="matrix(0.05,0,0,0.05,0,0)" xlink:href="#aj"/><use transform="matrix(0.05,0,0,0.05,12.950000000000001,0)" xlink:href="#aa"/><use transform="matrix(0.05,0,0,0.05,22.950000000000003,0)" xlink:href="#ab"/><use transform="matrix(0.05,0,0,0.05,28.900000000000002,0)" xlink:href="#ap"/><use transform="matrix(0.05,0,0,0.05,32.85,0)" xlink:href="#aq"/><use transform="matrix(0.05,0,0,0.05,41.85,0)" xlink:href="#aa"/></g><path fill="#d6d6e6" d="M240 0l2-218c-23 76-54 145-80 218h-23L58-218 59 0H30v-248h44l77 211c21-75 51-140 76-211h43V0h-30" id="az"/><g id="n"><use transform="matrix(0.05,0,0,0.05,0,0)" xlink:href="#az"/><use transform="matrix(0.05,0,0,0.05,14.950000000000001,0)" xlink:href="#af"/><use transform="matrix(0.05,0,0,0.05,24.950000000000003,0)" xlink:href="#Z"/><use transform="matrix(0.05,0,0,0.05,33.95,0)" xlink:href="#ad"/><use transform="matrix(0.05,0,0,0.05,38.95,0)" xlink:href="#aa"/><use transform="matrix(0.05,0,0,0.05,48.95,0)" xlink:href="#ab"/></g><path fill="#d6d6e6" d="M179-190L93 31C79 59 56 82 12 73V49c39 6 53-20 64-50L1-190h34L92-34l54-156h33" id="aA"/><g id="o"><use transform="matrix(0.05,0,0,0.05,0,0)" xlink:href="#as"/><use transform="matrix(0.05,0,0,0.05,12,0)" xlink:href="#aa"/><use transform="matrix(0.05,0,0,0.05,22,0)" xlink:href="#aA"/></g><path fill="#d6d6e6" d="M177-190C167-65 218 103 67 71c-23-6-38-20-44-43l32-5c15 47 100 32 89-28v-30C133-14 115 1 83 1 29 1 15-40 15-95c0-56 16-97 71-98 29-1 48 16 59 35 1-10 0-23 2-32h30zM94-22c36 0 50-32 50-73 0-42-14-75-50-75-39 0-46 34-46 75s6 73 46 73" id="aB"/><g id="p"><use transform="matrix(0.05,0,0,0.05,0,0)" xlink:href="#ag"/><use transform="matrix(0.05,0,0,0.05,10,0)" xlink:href="#Z"/><use transform="matrix(0.05,0,0,0.05,19,0)" xlink:href="#ap"/><use transform="matrix(0.05,0,0,0.05,22.95,0)" xlink:href="#ac"/><use transform="matrix(0.05,0,0,0.05,32.95,0)" xlink:href="#aB"/></g><path fill="#d6d6e6" d="M205 0l-28-72H64L36 0H1l101-248h38L239 0h-34zm-38-99l-47-123c-12 45-31 82-46 123h93" id="aC"/><path fill="#d6d6e6" d="M101-251c82-7 93 87 43 132L82-64C71-53 59-42 53-27h129V0H18c2-99 128-94 128-182 0-28-16-43-45-43s-46 15-49 41l-32-3c6-41 34-60 81-64" id="aD"/><g id="q"><use transform="matrix(0.05,0,0,0.05,0,0)" xlink:href="#aC"/><use transform="matrix(0.05,0,0,0.05,12,0)" xlink:href="#ab"/><use transform="matrix(0.05,0,0,0.05,17.95,0)" xlink:href="#aB"/><use transform="matrix(0.05,0,0,0.05,27.950000000000003,0)" xlink:href="#an"/><use transform="matrix(0.05,0,0,0.05,37.95,0)" xlink:href="#aD"/><use transform="matrix(0.05,0,0,0.05,47.95,0)" xlink:href="#ap"/><use transform="matrix(0.05,0,0,0.05,51.900000000000006,0)" xlink:href="#ak"/></g><path fill="#d6d6e6" d="M96-169c-40 0-48 33-48 73s9 75 48 75c24 0 41-14 43-38l32 2c-6 37-31 61-74 61-59 0-76-41-82-99-10-93 101-131 147-64 4 7 5 14 7 22l-32 3c-4-21-16-35-41-35" id="aE"/><path fill="#d6d6e6" d="M106-169C34-169 62-67 57 0H25v-261h32l-1 103c12-21 28-36 61-36 89 0 53 116 60 194h-32v-121c2-32-8-49-39-48" id="aF"/><g id="r"><use transform="matrix(0.05,0,0,0.05,0,0)" xlink:href="#au"/><use transform="matrix(0.05,0,0,0.05,12,0)" xlink:href="#ad"/><use transform="matrix(0.05,0,0,0.05,17,0)" xlink:href="#ab"/><use transform="matrix(0.05,0,0,0.05,22.95,0)" xlink:href="#aa"/><use transform="matrix(0.05,0,0,0.05,32.95,0)" xlink:href="#ad"/><use transform="matrix(0.05,0,0,0.05,37.95,0)" xlink:href="#aE"/><use transform="matrix(0.05,0,0,0.05,46.95,0)" xlink:href="#aF"/><use transform="matrix(0.05,0,0,0.05,56.95,0)" xlink:href="#aa"/><use transform="matrix(0.05,0,0,0.05,66.95,0)" xlink:href="#ak"/></g><g id="s"><use transform="matrix(0.05,0,0,0.05,0,0)" xlink:href="#as"/><use transform="matrix(0.05,0,0,0.05,12,0)" xlink:href="#aa"/><use transform="matrix(0.05,0,0,0.05,22,0)" xlink:href="#aA"/></g><g id="t"><use transform="matrix(0.05,0,0,0.05,0,0)" xlink:href="#ag"/><use transform="matrix(0.05,0,0,0.05,10,0)" xlink:href="#Z"/><use transform="matrix(0.05,0,0,0.05,19,0)" xlink:href="#ap"/><use transform="matrix(0.05,0,0,0.05,22.95,0)" xlink:href="#ac"/><use transform="matrix(0.05,0,0,0.05,32.95,0)" xlink:href="#aB"/></g><g id="u"><use transform="matrix(0.05,0,0,0.05,0,0)" xlink:href="#ar"/><use transform="matrix(0.05,0,0,0.05,12.950000000000001,0)" xlink:href="#as"/><use transform="matrix(0.05,0,0,0.05,24.950000000000003,0)" xlink:href="#aj"/><use transform="matrix(0.05,0,0,0.05,37.900000000000006,0)" xlink:href="#at"/></g><g id="v"><use transform="matrix(0.05,0,0,0.05,0,0)" xlink:href="#az"/><use transform="matrix(0.05,0,0,0.05,14.950000000000001,0)" xlink:href="#af"/><use transform="matrix(0.05,0,0,0.05,24.950000000000003,0)" xlink:href="#Z"/><use transform="matrix(0.05,0,0,0.05,33.95,0)" xlink:href="#ad"/><use transform="matrix(0.05,0,0,0.05,38.95,0)" xlink:href="#aa"/><use transform="matrix(0.05,0,0,0.05,48.95,0)" xlink:href="#ab"/></g><g id="w"><use transform="matrix(0.05,0,0,0.05,0,0)" xlink:href="#al"/><use transform="matrix(0.05,0,0,0.05,12,0)" xlink:href="#af"/><use transform="matrix(0.05,0,0,0.05,22,0)" xlink:href="#Z"/><use transform="matrix(0.05,0,0,0.05,31,0)" xlink:href="#Z"/><use transform="matrix(0.05,0,0,0.05,40,0)" xlink:href="#am"/><use transform="matrix(0.05,0,0,0.05,52.95,0)" xlink:href="#an"/><use transform="matrix(0.05,0,0,0.05,62.95,0)" xlink:href="#ab"/><use transform="matrix(0.05,0,0,0.05,68.9,0)" xlink:href="#ak"/></g><g id="x"><use transform="matrix(0.05,0,0,0.05,0,0)" xlink:href="#ar"/><use transform="matrix(0.05,0,0,0.05,12.950000000000001,0)" xlink:href="#af"/><use transform="matrix(0.05,0,0,0.05,22.950000000000003,0)" xlink:href="#Z"/><use transform="matrix(0.05,0,0,0.05,31.950000000000003,0)" xlink:href="#aF"/></g><g id="y"><use transform="matrix(0.05,0,0,0.05,0,0)" xlink:href="#au"/><use transform="matrix(0.05,0,0,0.05,12,0)" xlink:href="#aa"/><use transform="matrix(0.05,0,0,0.05,22,0)" xlink:href="#ac"/><use transform="matrix(0.05,0,0,0.05,32,0)" xlink:href="#ak"/></g><g id="z"><use transform="matrix(0.05,0,0,0.05,0,0)" xlink:href="#ar"/><use transform="matrix(0.05,0,0,0.05,12.950000000000001,0)" xlink:href="#af"/><use transform="matrix(0.05,0,0,0.05,22.950000000000003,0)" xlink:href="#Z"/><use transform="matrix(0.05,0,0,0.05,31.950000000000003,0)" xlink:href="#aF"/></g><g id="A"><use transform="matrix(0.05,0,0,0.05,0,0)" xlink:href="#ad"/><use transform="matrix(0.05,0,0,0.05,5,0)" xlink:href="#an"/></g><g id="B"><use transform="matrix(0.05,0,0,0.05,0,0)" xlink:href="#au"/><use transform="matrix(0.05,0,0,0.05,12,0)" xlink:href="#aa"/><use transform="matrix(0.05,0,0,0.05,22,0)" xlink:href="#ab"/><use transform="matrix(0.05,0,0,0.05,27.950000000000003,0)" xlink:href="#aq"/><use transform="matrix(0.05,0,0,0.05,36.95,0)" xlink:href="#aa"/><use transform="matrix(0.05,0,0,0.05,46.95,0)" xlink:href="#ab"/></g><g id="C"><use transform="matrix(0.05,0,0,0.05,0,0)" xlink:href="#aj"/><use transform="matrix(0.05,0,0,0.05,12.950000000000001,0)" xlink:href="#an"/><use transform="matrix(0.05,0,0,0.05,22.950000000000003,0)" xlink:href="#aa"/><use transform="matrix(0.05,0,0,0.05,32.95,0)" xlink:href="#Z"/></g><g id="D"><use transform="matrix(0.05,0,0,0.05,0,0)" xlink:href="#aw"/><use transform="matrix(0.05,0,0,0.05,14.950000000000001,0)" xlink:href="#af"/><use transform="matrix(0.05,0,0,0.05,24.950000000000003,0)" xlink:href="#ad"/><use transform="matrix(0.05,0,0,0.05,29.950000000000003,0)" xlink:href="#aE"/><use transform="matrix(0.05,0,0,0.05,38.95,0)" xlink:href="#aF"/></g><g id="E"><use transform="matrix(0.05,0,0,0.05,0,0)" xlink:href="#Z"/><use transform="matrix(0.05,0,0,0.05,9,0)" xlink:href="#aa"/><use transform="matrix(0.05,0,0,0.05,19,0)" xlink:href="#ab"/><use transform="matrix(0.05,0,0,0.05,24.95,0)" xlink:href="#aq"/><use transform="matrix(0.05,0,0,0.05,33.95,0)" xlink:href="#aa"/><use transform="matrix(0.05,0,0,0.05,43.95,0)" xlink:href="#ab"/></g><path fill="#d6d6e6" d="M103-251c84 0 111 97 45 133-19 10-37 24-39 52H78c0-63 77-55 77-114 0-30-21-42-52-43-32 0-53 17-56 46l-32-2c7-45 34-72 88-72zM77 0v-35h34V0H77" id="aG"/><g id="F"><use transform="matrix(0.05,0,0,0.05,0,0)" xlink:href="#ab"/><use transform="matrix(0.05,0,0,0.05,5.95,0)" xlink:href="#aa"/><use transform="matrix(0.05,0,0,0.05,15.949999999999998,0)" xlink:href="#aE"/><use transform="matrix(0.05,0,0,0.05,24.95,0)" xlink:href="#an"/><use transform="matrix(0.05,0,0,0.05,34.95,0)" xlink:href="#ab"/><use transform="matrix(0.05,0,0,0.05,40.900000000000006,0)" xlink:href="#ak"/><use transform="matrix(0.05,0,0,0.05,50.900000000000006,0)" xlink:href="#aG"/></g><g id="G"><use transform="matrix(0.05,0,0,0.05,0,0)" xlink:href="#aC"/><use transform="matrix(0.05,0,0,0.05,12,0)" xlink:href="#ay"/><use transform="matrix(0.05,0,0,0.05,24,0)" xlink:href="#au"/></g><path fill="#d6d6e6" d="M115-194c55 1 70 41 70 98S169 2 115 4C84 4 66-9 55-30l1 105H24l-1-265h31l2 30c10-21 28-34 59-34zm-8 174c40 0 45-34 45-75s-6-73-45-74c-42 0-51 32-51 76 0 43 10 73 51 73" id="aH"/><g id="H"><use transform="matrix(0.05,0,0,0.05,0,0)" xlink:href="#ay"/><use transform="matrix(0.05,0,0,0.05,12,0)" xlink:href="#ac"/><use transform="matrix(0.05,0,0,0.05,22,0)" xlink:href="#aE"/><use transform="matrix(0.05,0,0,0.05,31,0)" xlink:href="#ab"/><use transform="matrix(0.05,0,0,0.05,36.95,0)" xlink:href="#aA"/><use transform="matrix(0.05,0,0,0.05,45.95,0)" xlink:href="#aH"/><use transform="matrix(0.05,0,0,0.05,55.95,0)" xlink:href="#ad"/><use transform="matrix(0.05,0,0,0.05,60.95,0)" xlink:href="#aa"/><use transform="matrix(0.05,0,0,0.05,70.95,0)" xlink:href="#ak"/></g><g id="I"><use transform="matrix(0.05,0,0,0.05,0,0)" xlink:href="#aj"/><use transform="matrix(0.05,0,0,0.05,12.950000000000001,0)" xlink:href="#af"/><use transform="matrix(0.05,0,0,0.05,22.950000000000003,0)" xlink:href="#ad"/><use transform="matrix(0.05,0,0,0.05,27.950000000000003,0)" xlink:href="#af"/></g><g id="J"><use transform="matrix(0.05,0,0,0.05,0,0)" xlink:href="#Y"/><use transform="matrix(0.05,0,0,0.05,12.950000000000001,0)" xlink:href="#Z"/><use transform="matrix(0.05,0,0,0.05,21.950000000000003,0)" xlink:href="#aa"/><use transform="matrix(0.05,0,0,0.05,31.950000000000003,0)" xlink:href="#ab"/></g><g id="K"><use transform="matrix(0.05,0,0,0.05,0,0)" xlink:href="#au"/><use transform="matrix(0.05,0,0,0.05,12,0)" xlink:href="#aF"/><use transform="matrix(0.05,0,0,0.05,22,0)" xlink:href="#an"/><use transform="matrix(0.05,0,0,0.05,32,0)" xlink:href="#am"/></g><path fill="#d6d6e6" d="M33-154v-36h34v36H33zM33 0v-36h34V0H33" id="aI"/><g id="L"><use transform="matrix(0.05,0,0,0.05,0,0)" xlink:href="#ay"/><use transform="matrix(0.05,0,0,0.05,12,0)" xlink:href="#ab"/><use transform="matrix(0.05,0,0,0.05,17.95,0)" xlink:href="#ab"/><use transform="matrix(0.05,0,0,0.05,23.9,0)" xlink:href="#an"/><use transform="matrix(0.05,0,0,0.05,33.9,0)" xlink:href="#ab"/><use transform="matrix(0.05,0,0,0.05,39.85,0)" xlink:href="#aI"/></g><g id="M"><use transform="matrix(0.05,0,0,0.05,0,0)" xlink:href="#aC"/><use transform="matrix(0.05,0,0,0.05,12,0)" xlink:href="#ag"/><use transform="matrix(0.05,0,0,0.05,22,0)" xlink:href="#ad"/><use transform="matrix(0.05,0,0,0.05,27,0)" xlink:href="#aF"/><use transform="matrix(0.05,0,0,0.05,37,0)" xlink:href="#aa"/><use transform="matrix(0.05,0,0,0.05,47,0)" xlink:href="#ac"/><use transform="matrix(0.05,0,0,0.05,57,0)" xlink:href="#ad"/><use transform="matrix(0.05,0,0,0.05,62,0)" xlink:href="#ap"/><use transform="matrix(0.05,0,0,0.05,65.95,0)" xlink:href="#aE"/><use transform="matrix(0.05,0,0,0.05,74.95,0)" xlink:href="#af"/><use transform="matrix(0.05,0,0,0.05,84.95,0)" xlink:href="#ad"/><use transform="matrix(0.05,0,0,0.05,89.95,0)" xlink:href="#ap"/><use transform="matrix(0.05,0,0,0.05,93.9,0)" xlink:href="#an"/><use transform="matrix(0.05,0,0,0.05,103.9,0)" xlink:href="#ac"/></g><g id="N"><use transform="matrix(0.05,0,0,0.05,0,0)" xlink:href="#at"/><use transform="matrix(0.05,0,0,0.05,10.950000000000001,0)" xlink:href="#af"/><use transform="matrix(0.05,0,0,0.05,20.950000000000003,0)" xlink:href="#ap"/><use transform="matrix(0.05,0,0,0.05,24.900000000000002,0)" xlink:href="#ah"/><use transform="matrix(0.05,0,0,0.05,28.85,0)" xlink:href="#aa"/><use transform="matrix(0.05,0,0,0.05,38.85,0)" xlink:href="#ak"/></g><g id="O"><use transform="matrix(0.05,0,0,0.05,0,0)" xlink:href="#aj"/><use transform="matrix(0.05,0,0,0.05,12.950000000000001,0)" xlink:href="#aa"/><use transform="matrix(0.05,0,0,0.05,22.950000000000003,0)" xlink:href="#aE"/><use transform="matrix(0.05,0,0,0.05,31.950000000000003,0)" xlink:href="#ab"/><use transform="matrix(0.05,0,0,0.05,37.900000000000006,0)" xlink:href="#aA"/><use transform="matrix(0.05,0,0,0.05,46.900000000000006,0)" xlink:href="#aH"/><use transform="matrix(0.05,0,0,0.05,56.900000000000006,0)" xlink:href="#ad"/></g><g id="P"><use transform="matrix(0.05,0,0,0.05,0,0)" xlink:href="#aC"/><use transform="matrix(0.05,0,0,0.05,12,0)" xlink:href="#ay"/><use transform="matrix(0.05,0,0,0.05,24,0)" xlink:href="#au"/></g><g id="Q"><use transform="matrix(0.05,0,0,0.05,0,0)" xlink:href="#ay"/><use transform="matrix(0.05,0,0,0.05,12,0)" xlink:href="#ac"/><use transform="matrix(0.05,0,0,0.05,22,0)" xlink:href="#aE"/><use transform="matrix(0.05,0,0,0.05,31,0)" xlink:href="#ab"/><use transform="matrix(0.05,0,0,0.05,36.95,0)" xlink:href="#aA"/><use transform="matrix(0.05,0,0,0.05,45.95,0)" xlink:href="#aH"/><use transform="matrix(0.05,0,0,0.05,55.95,0)" xlink:href="#ad"/><use transform="matrix(0.05,0,0,0.05,60.95,0)" xlink:href="#aa"/><use transform="matrix(0.05,0,0,0.05,70.95,0)" xlink:href="#ak"/></g><g id="R"><use transform="matrix(0.05,0,0,0.05,0,0)" xlink:href="#au"/><use transform="matrix(0.05,0,0,0.05,12,0)" xlink:href="#ad"/><use transform="matrix(0.05,0,0,0.05,17,0)" xlink:href="#ab"/><use transform="matrix(0.05,0,0,0.05,22.95,0)" xlink:href="#aa"/><use transform="matrix(0.05,0,0,0.05,32.95,0)" xlink:href="#ad"/><use transform="matrix(0.05,0,0,0.05,37.95,0)" xlink:href="#aE"/><use transform="matrix(0.05,0,0,0.05,46.95,0)" xlink:href="#aF"/><use transform="matrix(0.05,0,0,0.05,56.95,0)" xlink:href="#aa"/><use transform="matrix(0.05,0,0,0.05,66.95,0)" xlink:href="#ak"/></g><g id="S"><use transform="matrix(0.05,0,0,0.05,0,0)" xlink:href="#as"/><use transform="matrix(0.05,0,0,0.05,12,0)" xlink:href="#aa"/><use transform="matrix(0.05,0,0,0.05,22,0)" xlink:href="#aA"/></g><path fill="#d6d6e6" d="M137-103V0h-34v-103L8-248h37l75 118 75-118h37" id="aJ"/><g id="T"><use transform="matrix(0.05,0,0,0.05,0,0)" xlink:href="#aJ"/><use transform="matrix(0.05,0,0,0.05,10.35,0)" xlink:href="#aa"/><use transform="matrix(0.05,0,0,0.05,20.35,0)" xlink:href="#Z"/></g><path fill="#d6d6e6" d="M190 0L58-211 59 0H30v-248h39L202-35l-2-213h31V0h-41" id="aK"/><g id="U"><use transform="matrix(0.05,0,0,0.05,0,0)" xlink:href="#aK"/><use transform="matrix(0.05,0,0,0.05,12.950000000000001,0)" xlink:href="#an"/></g><path fill="#d6d6e6" d="M147 0H94L2-248h55l64 206c17-72 42-137 63-206h54" id="aL"/><path fill="#d6d6e6" d="M133-34C117-15 103 5 69 4 32 3 11-16 11-54c-1-60 55-63 116-61 1-26-3-47-28-47-18 1-26 9-28 27l-52-2c7-38 36-58 82-57s74 22 75 68l1 82c-1 14 12 18 25 15v27c-30 8-71 5-69-32zm-48 3c29 0 43-24 42-57-32 0-66-3-65 30 0 17 8 27 23 27" id="aM"/><path fill="#d6d6e6" d="M85 4C-2 5 27-109 22-190h50c7 57-23 150 33 157 60-5 35-97 40-157h50l1 190h-47c-2-12 1-28-3-38-12 25-28 42-61 42" id="aN"/><path fill="#d6d6e6" d="M25 0v-261h50V0H25" id="aO"/><path fill="#d6d6e6" d="M115-3C79 11 28 4 28-45v-112H4v-33h27l15-45h31v45h36v33H77v99c-1 23 16 31 38 25v30" id="aP"/><g id="V"><use transform="matrix(0.1851851851851852,0,0,0.1851851851851852,0,0)" xlink:href="#aL"/><use transform="matrix(0.1851851851851852,0,0,0.1851851851851852,40.74074074074075,0)" xlink:href="#aM"/><use transform="matrix(0.1851851851851852,0,0,0.1851851851851852,77.77777777777779,0)" xlink:href="#aN"/><use transform="matrix(0.1851851851851852,0,0,0.1851851851851852,118.33333333333334,0)" xlink:href="#aO"/><use transform="matrix(0.1851851851851852,0,0,0.1851851851851852,136.85185185185185,0)" xlink:href="#aP"/></g><path fill="#d6d6e6" d="M238-95c0 69-44 99-111 99C63 4 22-25 22-93v-155h51v151c-1 38 19 59 55 60 90 1 49-130 58-211h52v153" id="aQ"/><path fill="#d6d6e6" d="M135-194c87-1 58 113 63 194h-50c-7-57 23-157-34-157-59 0-34 97-39 157H25l-1-190h47c2 12-1 28 3 38 12-26 28-41 61-42" id="aR"/><path fill="#d6d6e6" d="M110-194c64 0 96 36 96 99 0 64-35 99-97 99-61 0-95-36-95-99 0-62 34-99 96-99zm-1 164c35 0 45-28 45-65 0-40-10-65-43-65-34 0-45 26-45 65 0 36 10 65 43 65" id="aS"/><path fill="#d6d6e6" d="M190-63c-7 42-38 67-86 67-59 0-84-38-90-98-12-110 154-137 174-36l-49 2c-2-19-15-32-35-32-30 0-35 28-38 64-6 74 65 87 74 30" id="aT"/><path fill="#d6d6e6" d="M147 0L96-86 75-71V0H25v-261h50v150l67-79h53l-66 74L201 0h-54" id="aU"/><path fill="#d6d6e6" d="M25-224v-37h50v37H25zM25 0v-190h50V0H25" id="aV"/><path fill="#d6d6e6" d="M195-6C206 82 75 100 31 46c-4-6-6-13-8-21l49-6c3 16 16 24 34 25 40 0 42-37 40-79-11 22-30 35-61 35-53 0-70-43-70-97 0-56 18-96 73-97 30 0 46 14 59 34l2-30h47zm-90-29c32 0 41-27 41-63 0-35-9-62-40-62-32 0-39 29-40 63 0 36 9 62 39 62" id="aW"/><g id="W"><use transform="matrix(0.1851851851851852,0,0,0.1851851851851852,0,0)" xlink:href="#aQ"/><use transform="matrix(0.1851851851851852,0,0,0.1851851851851852,47.96296296296297,0)" xlink:href="#aR"/><use transform="matrix(0.1851851851851852,0,0,0.1851851851851852,88.51851851851853,0)" xlink:href="#aO"/><use transform="matrix(0.1851851851851852,0,0,0.1851851851851852,107.03703703703705,0)" xlink:href="#aS"/><use transform="matrix(0.1851851851851852,0,0,0.1851851851851852,147.5925925925926,0)" xlink:href="#aT"/><use transform="matrix(0.1851851851851852,0,0,0.1851851851851852,184.62962962962965,0)" xlink:href="#aU"/><use transform="matrix(0.1851851851851852,0,0,0.1851851851851852,221.66666666666669,0)" xlink:href="#aV"/><use transform="matrix(0.1851851851851852,0,0,0.1851851851851852,240.18518518518522,0)" xlink:href="#aR"/><use transform="matrix(0.1851851851851852,0,0,0.1851851851851852,280.74074074074076,0)" xlink:href="#aW"/></g><path fill="#d6d6e6" d="M230 0l2-204L168 0h-37L68-204 70 0H24v-248h70l56 185 57-185h69V0h-46" id="aX"/><path fill="#d6d6e6" d="M185-48c-13 30-37 53-82 52C43 2 14-33 14-96s30-98 90-98c62 0 83 45 84 108H66c0 31 8 55 39 56 18 0 30-7 34-22zm-45-69c5-46-57-63-70-21-2 6-4 13-4 21h74" id="aY"/><path fill="#d6d6e6" d="M114-157C55-157 80-60 75 0H25v-261h50l-1 109c12-26 28-41 61-42 86-1 58 113 63 194h-50c-7-57 23-157-34-157" id="aZ"/><path fill="#d6d6e6" d="M137-138c1-29-70-34-71-4 15 46 118 7 119 86 1 83-164 76-172 9l43-7c4 19 20 25 44 25 33 8 57-30 24-41C81-84 22-81 20-136c-2-80 154-74 161-7" id="ba"/><path fill="#d6d6e6" d="M220-157c-53 9-28 100-34 157h-49v-107c1-27-5-49-29-50C55-147 81-57 75 0H25l-1-190h47c2 12-1 28 3 38 10-53 101-56 108 0 13-22 24-43 59-42 82 1 51 116 57 194h-49v-107c-1-25-5-48-29-50" id="bb"/><g id="X"><use transform="matrix(0.1851851851851852,0,0,0.1851851851851852,0,0)" xlink:href="#aX"/><use transform="matrix(0.1851851851851852,0,0,0.1851851851851852,55.370370370370374,0)" xlink:href="#aY"/><use transform="matrix(0.1851851851851852,0,0,0.1851851851851852,92.40740740740742,0)" xlink:href="#aT"/><use transform="matrix(0.1851851851851852,0,0,0.1851851851851852,129.44444444444446,0)" xlink:href="#aZ"/><use transform="matrix(0.1851851851851852,0,0,0.1851851851851852,170,0)" xlink:href="#aM"/><use transform="matrix(0.1851851851851852,0,0,0.1851851851851852,207.03703703703707,0)" xlink:href="#aR"/><use transform="matrix(0.1851851851851852,0,0,0.1851851851851852,247.5925925925926,0)" xlink:href="#aV"/><use transform="matrix(0.1851851851851852,0,0,0.1851851851851852,266.11111111111114,0)" xlink:href="#ba"/><use transform="matrix(0.1851851851851852,0,0,0.1851851851851852,303.14814814814815,0)" xlink:href="#bb"/></g></defs></g></svg>